<svg id="Layer_1" data-name="Layer 1" xmlns="http://www.w3.org/2000/svg" viewBox="0 0 679.91893 591.71792"><defs><style>.cls-1,.cls-2,.cls-6{fill:#fff;}.cls-1,.cls-14,.cls-15,.cls-16,.cls-18,.cls-19,.cls-2,.cls-3,.cls-4,.cls-5,.cls-6,.cls-7{stroke:#000;}.cls-1,.cls-10,.cls-11,.cls-12,.cls-13,.cls-14,.cls-15,.cls-16,.cls-17,.cls-18,.cls-19,.cls-2,.cls-21,.cls-3,.cls-4,.cls-5,.cls-6,.cls-7,.cls-9{stroke-miterlimit:10;}.cls-1{stroke-width:13.5006px;}.cls-2{stroke-width:13.2346px;}.cls-3{stroke-width:3.7813px;}.cls-4{stroke-width:3.8573px;}.cls-5{stroke-width:3.7535px;}.cls-6{stroke-width:13.1373px;}.cls-7{stroke-width:4px;}.cls-10,.cls-11,.cls-12,.cls-13,.cls-20,.cls-8,.cls-9{isolation:isolate;}.cls-8{font-size:60px;}.cls-20,.cls-8{font-family:FCHomeRegular, FC Home;}.cls-10,.cls-11,.cls-12,.cls-13,.cls-14,.cls-15,.cls-16,.cls-17,.cls-18,.cls-19,.cls-21,.cls-9{fill:none;}.cls-10,.cls-13,.cls-17,.cls-9{stroke:#262222;}.cls-12,.cls-9{stroke-width:10px;}.cls-10,.cls-11,.cls-12,.cls-13,.cls-9{opacity:0.7;}.cls-10,.cls-11{stroke-width:14px;}.cls-11,.cls-21{stroke:#131111;}.cls-12{stroke:#393434;}.cls-13{stroke-width:13.90704px;}.cls-14,.cls-17{stroke-width:29.0791px;}.cls-15{stroke-width:28.1098px;}.cls-16{stroke-width:28.5628px;}.cls-18{stroke-width:30.6064px;}.cls-19{stroke-width:28.889px;}.cls-20{font-size:58.8941px;}.cls-21{stroke-width:18.2574px;}</style></defs><title>minimum_spanning_tree_9</title><g id="โหนด"><ellipse class="cls-1" cx="623.56862" cy="307.95031" rx="49.60001" ry="53.60001"/><ellipse class="cls-1" cx="334.56859" cy="307.95031" rx="49.59998" ry="53.60001"/><path class="cls-2" d="M1137.7,114.7" transform="translate(-240.03136 -91.04966)"/><path class="cls-2" d="M1176.2,10.4" transform="translate(-240.03136 -91.04966)"/><path class="cls-3" d="M1191.6,39.7" transform="translate(-240.03136 -91.04966)"/><path class="cls-3" d="M1164.5,39.7" transform="translate(-240.03136 -91.04966)"/><g id="Layer_3" data-name="Layer 3"><ellipse class="cls-1" cx="338.96861" cy="57.0503" rx="47.79999" ry="50.30001"/><path class="cls-4" d="M571.4,157.7c-.3.8-.6,1.5-.8,2.1a7.315,7.315,0,0,0-.7,1.9,10.66482,10.66482,0,0,0-.7,1.9,11.25738,11.25738,0,0,0-.8,2.2c-.2.6-.7.9-1.4,1.3a4.68068,4.68068,0,0,1-2.7.2,4.2353,4.2353,0,0,1-1.2-.4,4.72813,4.72813,0,0,1-1.2-.7c-.4-.3-.7-.6-.7-.9a1.51478,1.51478,0,0,1,.1-1.3c.1-.2.2-.7.5-1.3.3-.8.6-1.5.9-2.3a13.49172,13.49172,0,0,0,.8-2.4,8.88554,8.88554,0,0,1,.6-1.5c1-2.7,1.9-5.2,2.7-7.4s1.6-4.4,2.4-6.6c.9-2.2,1.8-4.4,2.8-6.7s2.2-4.9,3.7-7.7c.2-.5.7-.8,1.2-1.2a3.281,3.281,0,0,1,2.1-.6,4.20027,4.20027,0,0,1,2.1.6q1.04993.6,1.2,1.2c1.4,2.8,2.6,5.3,3.7,7.7,1,2.3,2,4.5,2.8,6.7.9,2.2,1.7,4.3,2.4,6.6-4.6-12.5-2.1-5.9,2.7,7.4.1.2.2.8.5,1.5q.45,1.2.9,2.4a12.664,12.664,0,0,1,.8,2.3c.3.8.4,1.2.6,1.3a1.51459,1.51459,0,0,1,.1,1.3c-.2.4-.4.8-.7.9a4.72914,4.72914,0,0,1-1.2.7,8.39514,8.39514,0,0,1-1.2.4,3.97338,3.97338,0,0,1-2.7-.2,2.57166,2.57166,0,0,1-1.4-1.3c-.6-1.6-1.1-2.9-1.5-4a40.37779,40.37779,0,0,1-1.5-3.9H572v-.2Zm7.19994-21.2c-.6,1.4-1.1,2.6-1.5,3.8s-.9,2.4-1.3,3.7a22.85006,22.85006,0,0,0-1.2,3.7q-.6,1.8-1.2,3.9h10.9c-.9-2.7-1.7-5.3-2.5-7.5C580.8,141.8,579.8,139.3,578.6,136.49994Z" transform="translate(-240.03136 -91.04966)"/></g><g id="Layer_4" data-name="Layer 4"><path class="cls-5" d="M879.7,408.6c0,7.9-4.4,12.1-13.2,12.1H851c-2.5,0-3.5-3-3.5-5.7l0-34.2a3.68548,3.68548,0,0,1,3.5-3.5h14.1c7.5,0,12.3,4.7,12.3,11.9a10.33987,10.33987,0,0,1-5.2,9C876.3,399.8,879.7,404,879.7,408.6ZM864,384.2h-8.3v11.6H864c3.5,0,5.3-2.4,5.3-5.8C869.2,386.6,867.4,384.2,864,384.2Zm7.8,23.8c0-3.5-3-6.1-6.9-6.1h-9.3v12.2h10.2A5.79475,5.79475,0,0,0,871.8,408Z" transform="translate(-240.03136 -91.04966)"/><ellipse class="cls-6" cx="55.16863" cy="305.45031" rx="48.59998" ry="51.10001"/><path class="cls-7" d="M564.58136,399.2047c0,10.5,4.5,15.9,12.9,15.9a16.616,16.616,0,0,0,9.4-3.2,4.816,4.816,0,0,1,6.1,1.4c1.3,1.8.4,3.5-1.3,4.6a25.50366,25.50366,0,0,1-14.2,4.3c-14.5,0-21.8-9.1-21.8-23,0-13.1,6.6-23,21.8-23a24.01474,24.01474,0,0,1,14.2,4.3c1.9,1.4,2.2,2.9.9,5.1-.9,1.8-4.4,1.5-6,.6a15.50192,15.50192,0,0,0-9.1-3C569.08135,383.2047,564.58135,388.7047,564.58136,399.2047Z" transform="translate(-240.03136 -91.04966)"/><path class="cls-4" d="M309.6,396.40387c0,14.8-6.8,22.5-20.6,22.5H277.7a3.4826,3.4826,0,0,1-3.4-3.6l0-37.7a3.48261,3.48261,0,0,1,3.4-3.6h11.2C302.4999,373.80387,309.59994,381.30386,309.6,396.40387Zm-8.1,0c0-10.5-3.7-15.5-12.6-15.5h-6.6l0,31.1h6.6C297.4,411.90388,301.49992,406.90387,301.49992,396.40387Z" transform="translate(-240.03136 -91.04966)"/></g></g><g id="เลข"><text class="cls-8" transform="translate(169.92701 136.61928)">9</text><text class="cls-8" transform="translate(456.8689 370.58724)">19</text><text class="cls-8" transform="translate(495.04194 142.75026)">16B</text><text class="cls-8" transform="translate(356.87739 198.42882)">16A</text><text class="cls-8" transform="translate(188.86207 370.58742)">15</text></g><g id="เส้นเล็ก"><path class="cls-9" d="M319.3,221.1" transform="translate(-240.03136 -91.04966)"/><path class="cls-9" d="M100.1,177.4" transform="translate(-240.03136 -91.04966)"/><path class="cls-9" d="M370.3,627.2" transform="translate(-240.03136 -91.04966)"/><path class="cls-9" d="M104.69993,629.6" transform="translate(-240.03136 -91.04966)"/><line class="cls-10" x1="573.96861" y1="314.55032" x2="386.7686" y2="310.95031"/><line class="cls-10" x1="284.96861" y1="310.95031" x2="103.7686" y2="308.15031"/><line class="cls-11" x1="339.7686" y1="254.35031" x2="342.16863" y2="107.2503"/><path class="cls-11" d="M578.9,454.9" transform="translate(-240.03136 -91.04966)"/><path class="cls-11" d="M633.8,529.1" transform="translate(-240.03136 -91.04966)"/><path class="cls-12" d="M76.8,331.5" transform="translate(-240.03136 -91.04966)"/><path class="cls-12" d="M46.4,233.8" transform="translate(-240.03136 -91.04966)"/><path class="cls-12" d="M373.1,371.4" transform="translate(-240.03136 -91.04966)"/><path class="cls-12" d="M373.1,272.1" transform="translate(-240.03136 -91.04966)"/><path class="cls-9" d="M46.6,564.9" transform="translate(-240.03136 -91.04966)"/><path class="cls-9" d="M76.5,450.3" transform="translate(-240.03136 -91.04966)"/><path class="cls-9" d="M434.4,554.2" transform="translate(-240.03136 -91.04966)"/><path class="cls-9" d="M376.8,488.9" transform="translate(-240.03136 -91.04966)"/><path class="cls-9" d="M743.3,370.9" transform="translate(-240.03136 -91.04966)"/><path class="cls-9" d="M743.3,274.2" transform="translate(-240.03136 -91.04966)"/><path class="cls-12" d="M798.9,555.1" transform="translate(-240.03136 -91.04966)"/><path class="cls-12" d="M741.3,485.1" transform="translate(-240.03136 -91.04966)"/><line class="cls-10" x1="380.7686" y1="81.45031" x2="599.56862" y2="261.05032"/><path class="cls-10" d="M539.7,176.7" transform="translate(-240.03136 -91.04966)"/><path class="cls-10" d="M334.4,357.5" transform="translate(-240.03136 -91.04966)"/><line class="cls-13" x1="292.16666" y1="79.09489" x2="86.55564" y2="266.45129"/></g><g id="เส้นใหญ่"><line class="cls-14" x1="380.7686" y1="81.45031" x2="599.56862" y2="261.05032"/><path class="cls-15" d="M194.20005,89.89986" transform="translate(-240.03136 -91.04966)"/><path class="cls-15" d="M194.2,237.69984" transform="translate(-240.03136 -91.04966)"/><line class="cls-16" x1="103.7686" y1="308.15031" x2="284.96861" y2="307.95031"/><path class="cls-14" d="M901.30007,141.60011" transform="translate(-240.03136 -91.04966)"/><path class="cls-14" d="M721.30011,42" transform="translate(-240.03136 -91.04966)"/><path class="cls-14" d="M1178.5,334.2002" transform="translate(-240.03136 -91.04966)"/><path class="cls-14" d="M696.9,303.9" transform="translate(-240.03136 -91.04966)"/><path class="cls-14" d="M176.5,511.89985" transform="translate(-240.03136 -91.04966)"/><path class="cls-14" d="M206.9,390.99987" transform="translate(-240.03136 -91.04966)"/><path class="cls-17" d="M864.8,236.70008" transform="translate(-240.03136 -91.04966)"/><path class="cls-17" d="M865.90005,140.90009" transform="translate(-240.03136 -91.04966)"/><path class="cls-14" d="M176.1,182.59986" transform="translate(-240.03136 -91.04966)"/><path class="cls-14" d="M206.90006,275.69985" transform="translate(-240.03136 -91.04966)"/><path class="cls-14" d="M557.09993,505.7" transform="translate(-240.03136 -91.04966)"/><path class="cls-14" d="M483.4,357.3" transform="translate(-240.03136 -91.04966)"/><path class="cls-18" d="M899.39994,445.7001" transform="translate(-240.03136 -91.04966)"/><path class="cls-18" d="M800.99994,545.90007" transform="translate(-240.03136 -91.04966)"/><line class="cls-19" x1="86.55564" y1="266.45129" x2="295.35696" y2="77.66343"/></g><text class="cls-20" transform="translate(257.14366 571.87058) scale(0.9371 1)">[ 9, 15, 16B ]</text><line class="cls-21" x1="133.7686" y1="225.55032" x2="133.7686" y2="225.55032"/></svg>