<svg id="Layer_1" data-name="Layer 1" xmlns="http://www.w3.org/2000/svg" viewBox="0 0 1061.97029 642.27637"><defs><style>.cls-1,.cls-3{fill:#fff;}.cls-1,.cls-10,.cls-11,.cls-12,.cls-14,.cls-17,.cls-2,.cls-3,.cls-4{stroke:#000;}.cls-1,.cls-10,.cls-11,.cls-12,.cls-13,.cls-14,.cls-17,.cls-2,.cls-3,.cls-4,.cls-5,.cls-6,.cls-7,.cls-8,.cls-9{stroke-miterlimit:10;}.cls-1{stroke-width:13.5702px;}.cls-2{stroke-width:3.8772px;}.cls-3{stroke-width:13.3029px;}.cls-4{stroke-width:3.8008px;}.cls-10,.cls-11,.cls-12,.cls-13,.cls-14,.cls-16,.cls-17,.cls-5,.cls-6,.cls-7,.cls-8,.cls-9{fill:none;}.cls-13,.cls-5,.cls-9{stroke:#262222;}.cls-5,.cls-7,.cls-8{stroke-width:9.693px;}.cls-5,.cls-6,.cls-7,.cls-8,.cls-9{opacity:0.7;}.cls-15,.cls-5,.cls-6,.cls-7,.cls-8,.cls-9{isolation:isolate;}.cls-6,.cls-8{stroke:#393434;}.cls-6{stroke-width:10.1156px;}.cls-7{stroke:#131111;}.cls-9{stroke-width:9.6909px;}.cls-10,.cls-13{stroke-width:29.0791px;}.cls-11{stroke-width:28.1098px;}.cls-12{stroke-width:28.5628px;}.cls-14{stroke-width:30.6064px;}.cls-15{font-size:60px;font-family:FCHomeRegular, FC Home;}.cls-17{stroke-width:32.81813px;}</style></defs><title>minimum_spanning_tree_13</title><g id="โหนด"><ellipse class="cls-1" cx="779.0851" cy="68.37638" rx="50.09998" ry="53.6"/><ellipse class="cls-1" cx="565.0851" cy="293.87637" rx="50.09998" ry="53.60001"/><path class="cls-2" d="M887.6,150.9v11.9h14.7a3.20417,3.20417,0,0,1,3.5,3.4,3.34289,3.34289,0,0,1-3.1,3.5H887.6v12.6H906a3.26858,3.26858,0,0,1,3.6,3.5,3.42409,3.42409,0,0,1-3.2,3.5H882.9c-2.5,0-3.5-1.5-3.5-4.1V148c0-2.4.7-4.1,3.5-4.1h23c1.9,0,3.7,1,3.7,3.5a3.45772,3.45772,0,0,1-3.4,3.5H887.6Z" transform="translate(-115.4149 -98.22363)"/><ellipse class="cls-1" cx="289.78511" cy="67.57637" rx="50.10001" ry="53.59999"/><ellipse class="cls-1" cx="56.8851" cy="293.17636" rx="50.09999" ry="53.60001"/><path class="cls-3" d="M122.2,666.7" transform="translate(-115.4149 -98.22363)"/><path class="cls-3" d="M78.9,793.3" transform="translate(-115.4149 -98.22363)"/><path class="cls-4" d="M63.4,764" transform="translate(-115.4149 -98.22363)"/><path class="cls-4" d="M90.7,764" transform="translate(-115.4149 -98.22363)"/><path class="cls-2" d="M671.1,393.6c0,10.5,4.2,15.9,12.1,15.9a15.05452,15.05452,0,0,0,8.8-3.2,4.30542,4.30542,0,0,1,5.7,1.4c1.2,1.8.4,3.5-1.2,4.6a22.69534,22.69534,0,0,1-13.3,4.3c-13.6,0-20.4-9.1-20.4-23.1,0-13.1,6.2-23.1,20.4-23.1a21.38489,21.38489,0,0,1,13.3,4.3c1.8,1.4,2.1,2.9.8,5.1-.8,1.8-4.1,1.5-5.6.6a13.97342,13.97342,0,0,0-8.5-3C675.3,377.6,671.1,383.1,671.1,393.6Z" transform="translate(-115.4149 -98.22363)"/><g id="Layer_3" data-name="Layer 3"><ellipse class="cls-1" cx="1006.88514" cy="281.27637" rx="48.30005" ry="50.29999"/><path class="cls-2" d="M397.6,172.5c-.3.8-.6,1.5-.8,2.1a7.313,7.313,0,0,0-.7,1.9,10.66521,10.66521,0,0,0-.7,1.9c-.2.7-.6,1.3-.8,2.2-.2.6-.7.9-1.4,1.3a4.68037,4.68037,0,0,1-2.7.2,4.23513,4.23513,0,0,1-1.2-.4,4.72823,4.72823,0,0,1-1.2-.7c-.4-.3-.7-.6-.7-.9a1.51465,1.51465,0,0,1,.1-1.3c.1-.2.2-.7.5-1.3.3-.8.6-1.5.9-2.3a13.49108,13.49108,0,0,0,.8-2.4,8.88033,8.88033,0,0,1,.6-1.5c1-2.7,1.9-5.2,2.7-7.4s1.6-4.4,2.4-6.6c.9-2.2,1.8-4.4,2.8-6.7s2.2-4.9,3.7-7.7c.2-.5.7-.8,1.2-1.2a3.48,3.48,0,0,1,2.1-.6,4.20043,4.20043,0,0,1,2.1.6q1.05.6,1.2,1.2c1.4,2.8,2.6,5.3,3.7,7.7,1,2.3,2,4.5,2.8,6.7.9,2.2,1.7,4.3,2.4,6.6.8,2.3,1.7,4.7,2.7,7.4.1.2.2.8.5,1.5q.45,1.2.9,2.4a12.66431,12.66431,0,0,1,.8,2.3c.3.8.4,1.2.6,1.3a1.51472,1.51472,0,0,1,.1,1.3c-.2.4-.4.8-.7.9a4.72788,4.72788,0,0,1-1.2.7,8.39607,8.39607,0,0,1-1.2.4,3.97367,3.97367,0,0,1-2.7-.2,2.57156,2.57156,0,0,1-1.4-1.3c-.6-1.6-1.1-2.9-1.5-4a40.37752,40.37752,0,0,1-1.5-3.9H398v-.2Zm7.3-21.3c-.6,1.4-1.1,2.6-1.5,3.8s-.9,2.4-1.3,3.7a22.8528,22.8528,0,0,0-1.2,3.7q-.6,1.8-1.2,3.9h11c-.9-2.7-1.7-5.3-2.5-7.5C407.1,156.5,406.1,154,404.9,151.2Z" transform="translate(-115.4149 -98.22363)"/></g><g id="Layer_4" data-name="Layer 4"><path class="cls-2" d="M188.6,400.3c0,8.3-4.4,12.8-13.3,12.8H159.6c-2.5,0-3.5-3.2-3.5-6V371a3.7976,3.7976,0,0,1,3.5-3.7h14.2c7.6,0,12.4,5,12.4,12.6a10.92192,10.92192,0,0,1-5.3,9.5A11.90977,11.90977,0,0,1,188.6,400.3Zm-16-25.9h-8.4v12.2h8.4c3.5,0,5.4-2.5,5.4-6.1C177.9,376.9,176.1,374.4,172.6,374.4Zm7.8,25.2c0-3.7-3-6.4-7-6.4H164v12.9h10.3C177.6,406.1,180.4,403.9,180.4,399.6Z" transform="translate(-115.4149 -98.22363)"/></g><path class="cls-2" d="M1145.7,379.5c0,14.8-6.9,22.5-20.80005,22.5h-11.5a3.48261,3.48261,0,0,1-3.4-3.6V360.7a3.4826,3.4826,0,0,1,3.4-3.6H1124.7C1138.5,356.9,1145.7,364.4,1145.7,379.5Zm-8.19995,0c0-10.5-3.69995-15.5-12.69995-15.5h-6.69995v31.1h6.69995C1133.4,395,1137.5,390,1137.5,379.5Z" transform="translate(-115.4149 -98.22363)"/></g><g id="เส้นเล็ก"><path class="cls-5" d="M902,606.6" transform="translate(-115.4149 -98.22363)"/><path class="cls-5" d="M1170.4,604" transform="translate(-115.4149 -98.22363)"/><line class="cls-5" x1="958.68507" y1="291.97638" x2="615.78511" y2="293.97638"/><path class="cls-5" d="M897.5,154.2" transform="translate(-115.4149 -98.22363)"/><path class="cls-5" d="M1165.9,151.8" transform="translate(-115.4149 -98.22363)"/><path class="cls-5" d="M455.3,599.4" transform="translate(-115.4149 -98.22363)"/><path class="cls-5" d="M835.4,599.4" transform="translate(-115.4149 -98.22363)"/><line class="cls-5" x1="526.88508" y1="259.07635" x2="324.48509" y2="106.27637"/><line class="cls-5" x1="723.88508" y1="63.47636" x2="342.98509" y2="63.47636"/><path class="cls-6" d="M933.1,566.8" transform="translate(-115.4149 -98.22363)"/><path class="cls-6" d="M1110,429.8" transform="translate(-115.4149 -98.22363)"/><line class="cls-5" x1="977.18507" y1="241.67636" x2="829.28511" y2="94.57637"/><line class="cls-5" x1="743.5851" y1="106.27637" x2="596.98512" y2="247.57635"/><path class="cls-7" d="M453.7,566.8" transform="translate(-115.4149 -98.22363)"/><path class="cls-7" d="M632.8,420" transform="translate(-115.4149 -98.22363)"/><path class="cls-8" d="M1194.1,449.8" transform="translate(-115.4149 -98.22363)"/><path class="cls-8" d="M1220.4,569.9" transform="translate(-115.4149 -98.22363)"/><path class="cls-8" d="M847.5,456.3" transform="translate(-115.4149 -98.22363)"/><path class="cls-8" d="M847.5,555.6" transform="translate(-115.4149 -98.22363)"/><path class="cls-5" d="M1220.2,238.8" transform="translate(-115.4149 -98.22363)"/><path class="cls-5" d="M1194.4,331.1" transform="translate(-115.4149 -98.22363)"/><path class="cls-5" d="M843.9,224.7" transform="translate(-115.4149 -98.22363)"/><path class="cls-5" d="M843.9,338.8" transform="translate(-115.4149 -98.22363)"/><path class="cls-5" d="M462.4,459.3" transform="translate(-115.4149 -98.22363)"/><path class="cls-5" d="M462.4,556" transform="translate(-115.4149 -98.22363)"/><path class="cls-8" d="M464.5,226.3" transform="translate(-115.4149 -98.22363)"/><path class="cls-8" d="M464.5,345.1" transform="translate(-115.4149 -98.22363)"/><path class="cls-9" d="M197.7,445" transform="translate(-115.4149 -98.22363)"/><path class="cls-9" d="M358.8,556.4" transform="translate(-115.4149 -98.22363)"/><line class="cls-9" x1="237.78511" y1="72.97636" x2="56.8851" y2="239.57635"/><line class="cls-5" x1="514.88508" y1="293.87637" x2="106.98509" y2="293.17636"/></g><g id="เส้นใหญ่"><path class="cls-10" d="M450.9,599.4" transform="translate(-115.4149 -98.22363)"/><path class="cls-10" d="M843.9,599.4" transform="translate(-115.4149 -98.22363)"/><line class="cls-11" x1="977.18507" y1="241.67636" x2="824.88508" y2="90.17636"/><path class="cls-12" d="M452.7,563.2" transform="translate(-115.4149 -98.22363)"/><path class="cls-12" d="M632.8,408.8" transform="translate(-115.4149 -98.22363)"/><line class="cls-10" x1="743.5851" y1="106.27637" x2="590.38508" y2="247.57635"/><path class="cls-10" d="M458.4,161.7" transform="translate(-115.4149 -98.22363)"/><path class="cls-10" d="M839.9,162.1" transform="translate(-115.4149 -98.22363)"/><path class="cls-10" d="M1220.1,236" transform="translate(-115.4149 -98.22363)"/><path class="cls-10" d="M1194.1,334.6" transform="translate(-115.4149 -98.22363)"/><path class="cls-13" d="M462.4,459.3" transform="translate(-115.4149 -98.22363)"/><path class="cls-13" d="M461.4,555.1" transform="translate(-115.4149 -98.22363)"/><path class="cls-10" d="M1220.5,565.3" transform="translate(-115.4149 -98.22363)"/><path class="cls-10" d="M1194.1,449.8" transform="translate(-115.4149 -98.22363)"/><path class="cls-10" d="M843.9,219.9" transform="translate(-115.4149 -98.22363)"/><path class="cls-10" d="M843.9,338.7" transform="translate(-115.4149 -98.22363)"/><line class="cls-14" x1="243.38508" y1="83.47636" x2="68.5851" y2="241.87637"/></g><g id="เลข"><text class="cls-15" transform="translate(62.6351 133.87354)">6.66</text><text class="cls-15" transform="translate(514.92341 44.54956)">16.66</text><text class="cls-15" transform="translate(699.42158 204.44788)">6.67</text><text class="cls-15" transform="translate(913.52699 148.66565)">6.99</text><text class="cls-15" transform="translate(271.87629 358.07635)">9.99</text><text class="cls-15" transform="translate(461.58632 176.90747)">6.96</text><text class="cls-15" transform="translate(763.985 361.07657)">9.98</text></g><rect class="cls-16" x="295.28511" y="538.57635" width="678.99994" height="103.70001"/><text class="cls-15" transform="translate(295.28511 569.96838)">[ 6.66, 6.67, 6.96, 6.99 ] </text><line class="cls-17" x1="330.38125" y1="98.97024" x2="526.88508" y2="259.07635"/></svg>