<svg id="Layer_1" data-name="Layer 1" xmlns="http://www.w3.org/2000/svg" viewBox="0 0 1061.97029 670.08887"><defs><style>.cls-1,.cls-3{fill:#fff;}.cls-1,.cls-10,.cls-11,.cls-12,.cls-14,.cls-2,.cls-3,.cls-4{stroke:#000;}.cls-1,.cls-10,.cls-11,.cls-12,.cls-13,.cls-14,.cls-2,.cls-3,.cls-4,.cls-5,.cls-6,.cls-7,.cls-8,.cls-9{stroke-miterlimit:10;}.cls-1{stroke-width:13.5702px;}.cls-2{stroke-width:3.8772px;}.cls-3{stroke-width:13.3029px;}.cls-4{stroke-width:3.8008px;}.cls-10,.cls-11,.cls-12,.cls-13,.cls-14,.cls-5,.cls-6,.cls-7,.cls-8,.cls-9{fill:none;}.cls-13,.cls-5,.cls-9{stroke:#262222;}.cls-5,.cls-7,.cls-8{stroke-width:9.693px;}.cls-5,.cls-6,.cls-7,.cls-8,.cls-9{opacity:0.7;}.cls-15,.cls-16,.cls-17,.cls-5,.cls-6,.cls-7,.cls-8,.cls-9{isolation:isolate;}.cls-6,.cls-8{stroke:#393434;}.cls-6{stroke-width:10.1156px;}.cls-7{stroke:#131111;}.cls-9{stroke-width:9.6909px;}.cls-10,.cls-13{stroke-width:29.0791px;}.cls-11{stroke-width:28.1098px;}.cls-12{stroke-width:28.5628px;}.cls-14{stroke-width:30.6064px;}.cls-15{font-size:60px;}.cls-15,.cls-17{font-family:FCHomeRegular, FC Home;}.cls-17{font-size:58.8941px;}</style></defs><title>minimum_spanning_tree_5</title><g id="โหนด"><ellipse class="cls-1" cx="779.08509" cy="68.37638" rx="50.09998" ry="53.6"/><path class="cls-2" d="M887,166.3c0,10.5,4.2,15.9,12.1,15.9a14.81386,14.81386,0,0,0,8.8-3.2,4.28117,4.28117,0,0,1,5.7,1.4c1.2,1.8.4,3.5-1.2,4.6a22.69517,22.69517,0,0,1-13.3,4.3c-13.6,0-20.4-9.1-20.4-23.1,0-13.1,6.2-23.1,20.4-23.1a21.18837,21.18837,0,0,1,13.3,4.3c1.8,1.4,2.1,2.9.8,5.1-.8,1.8-4.1,1.5-5.6.6a13.75644,13.75644,0,0,0-8.5-3C891.2,150.3,887,155.8,887,166.3Z" transform="translate(-115.91491 -98.72363)"/><ellipse class="cls-1" cx="541.08509" cy="293.47638" rx="50.09998" ry="53.60001"/><path class="cls-2" d="M674.8,392.1c0,14.8-6.9,22.5-20.8,22.5H642.6a3.61363,3.61363,0,0,1-3.4-3.6h0V373.3a3.47572,3.47572,0,0,1,3.34839-3.59854L642.6,369.7h11.3C667.6,369.6,674.8,377,674.8,392.1Zm-8.1,0c0-10.5-3.7-15.5-12.7-15.5h-6.7v31.1H654C662.5,407.7,666.7,402.7,666.7,392.1Z" transform="translate(-115.91491 -98.72363)"/><ellipse class="cls-1" cx="289.7851" cy="482.07635" rx="50.10001" ry="53.59998"/><path class="cls-2" d="M398.8,562v11.9h14.7a3.16926,3.16926,0,0,1,3.49158,2.81019q.00484.04485.00842.08984v.5a3.33611,3.33611,0,0,1-3.1,3.5H398.8v12.6h18.4a3.26145,3.26145,0,0,1,3.59842,2.88538l.00159.01465v.6a3.49236,3.49236,0,0,1-3.2,3.5H394.1c-2.5,0-3.5-1.5-3.5-4.1V559.1c0-2.4.7-4.1,3.5-4.1h23c1.9,0,3.7,1,3.7,3.5a3.4577,3.4577,0,0,1-3.4,3.5H398.8Z" transform="translate(-115.91491 -98.72363)"/><ellipse class="cls-1" cx="289.7851" cy="67.57637" rx="50.10001" ry="53.59999"/><path class="cls-2" d="M416.2,146.7a3.33612,3.33612,0,0,1-3.1,3.5H394.4v11.9h14.7a3.31749,3.31749,0,0,1,3.5,3v.4a3.33611,3.33611,0,0,1-3.1,3.5H394.4v16.4c0,1.8-1.9,3.5-4.1,3.5s-4.1-1.7-4.1-3.5V146.8a3.629,3.629,0,0,1,3.5-3.6h23.1a3.246,3.246,0,0,1,3.39929,3.08508L416.2,146.3v.1Z" transform="translate(-115.91491 -98.72363)"/><ellipse class="cls-1" cx="56.88509" cy="293.17636" rx="50.09999" ry="53.60001"/><path class="cls-2" d="M192,392c.5,13-4.8,21.6-19,21.8-12.9,0-20.1-9.6-20.1-23.1,0-13.7,7-23.1,21.3-23.1,5.2,0,18,3.6,14.9,9a3.56658,3.56658,0,0,1-3.9,1.6c-4.1-1.5-7.4-3.4-11-3.4-8.5,0-12.9,5.3-12.9,15.7,0,8.7,3.7,15.7,12.1,15.7,8,0,11.2-4,11.4-12.1h-7.5c-2.3,0-3.2-1.7-3.2-3.7,0-1.9.8-3.7,3.2-3.7H188C190.8,386.9,191.9,389.7,192,392Z" transform="translate(-115.91491 -98.72363)"/><path class="cls-3" d="M122.7,667.2" transform="translate(-115.91491 -98.72363)"/><path class="cls-3" d="M79.4,793.8" transform="translate(-115.91491 -98.72363)"/><path class="cls-4" d="M63.9,764.5" transform="translate(-115.91491 -98.72363)"/><path class="cls-4" d="M91.2,764.5" transform="translate(-115.91491 -98.72363)"/><g id="Layer_3" data-name="Layer 3"><ellipse class="cls-1" cx="1006.88514" cy="281.27637" rx="48.30005" ry="50.29999"/><path class="cls-2" d="M1119.30005,389.1c-.30005.8-.6,1.5-.80005,2.1a14.56711,14.56711,0,0,0-.69995,1.9,10.65661,10.65661,0,0,0-.69995,1.9c-.2.7-.6,1.3-.80005,2.2-.19995.6-.69995.9-1.4,1.3a4.99288,4.99288,0,0,1-2.69995.2,5.63543,5.63543,0,0,1-1.2-.4,7.45465,7.45465,0,0,1-1.19995-.7,1.59557,1.59557,0,0,1-.69995-.9,1.4954,1.4954,0,0,1,.1-1.3c.1-.2.19995-.7.5-1.3.3-.8.6-1.6.9-2.3a13.498,13.498,0,0,0,.80005-2.4,4.71478,4.71478,0,0,1,.6-1.5c1-2.7,1.9-5.2,2.7-7.4s1.6-4.4,2.4-6.6c.9-2.2,1.80005-4.4,2.80005-6.7s2.19995-4.9,3.69995-7.7c.19995-.5.69995-.8,1.19995-1.2a3.69692,3.69692,0,0,1,2.1-.6,4.20057,4.20057,0,0,1,2.1.6q1.04993.6,1.2,1.2c1.4,2.8,2.6,5.3,3.69995,7.7,1,2.3,2,4.5,2.80005,6.7.9,2.2,1.69995,4.3,2.4,6.6.8,2.3,1.69995,4.7,2.69995,7.4.1.2.19995.8.5,1.5q.45007,1.2.9,2.4a12.66919,12.66919,0,0,1,.8,2.3c.30005.8.4,1.2.6,1.3a1.95067,1.95067,0,0,1,.1,1.3c-.2.4-.4.8-.7.9a7.46356,7.46356,0,0,1-1.19995.7,5.6386,5.6386,0,0,1-1.19995.4,3.595,3.595,0,0,1-2.69995-.2,2.5396,2.5396,0,0,1-1.4-1.3c-.6-1.6-1.1-2.9-1.5-4a31.22153,31.22153,0,0,1-1.5-3.9h-14.8ZM1126.6,367.8c-.6,1.4-1.1,2.6-1.5,3.8s-.9,2.4-1.30005,3.7A22.84918,22.84918,0,0,0,1122.6,379q-.59986,1.8-1.2,3.9h11c-.9-2.7-1.69995-5.3-2.5-7.5C1128.80005,373.1,1127.80005,370.6,1126.6,367.8Z" transform="translate(-115.91491 -98.72363)"/></g><g id="Layer_4" data-name="Layer 4"><ellipse class="cls-1" cx="772.98511" cy="491.07635" rx="49.09998" ry="54"/><path class="cls-2" d="M905.2,599.9c0,8.3-4.4,12.8-13.3,12.8H876.2c-2.5,0-3.5-3.2-3.5-6V570.6a3.78923,3.78923,0,0,1,3.5-3.7h14.2c7.6,0,12.4,5,12.4,12.6a10.8581,10.8581,0,0,1-5.3,9.5A11.93283,11.93283,0,0,1,905.2,599.9ZM889.3,574h-8.4v12.2h8.4c3.5,0,5.4-2.5,5.4-6.1-.1-3.6-2-6.1-5.4-6.1Zm7.8,25.2c0-3.7-3-6.4-7-6.4h-9.4v12.9h10.3c3.3,0,6.1-2.2,6.1-6.5Z" transform="translate(-115.91491 -98.72363)"/></g></g><g id="เส้นเล็ก"><path class="cls-5" d="M902.5,607.1" transform="translate(-115.91491 -98.72363)"/><path class="cls-5" d="M1170.9,604.5" transform="translate(-115.91491 -98.72363)"/><line class="cls-5" x1="958.68506" y1="291.97638" x2="591.88508" y2="293.67636"/><path class="cls-5" d="M898,154.7" transform="translate(-115.91491 -98.72363)"/><path class="cls-5" d="M1166.4,152.3" transform="translate(-115.91491 -98.72363)"/><line class="cls-5" x1="719.98511" y1="501.17639" x2="339.88508" y2="501.17639"/><line class="cls-5" x1="502.98511" y1="258.67636" x2="324.48508" y2="106.27637"/><line class="cls-5" x1="723.88508" y1="63.47636" x2="342.98508" y2="63.47636"/><line class="cls-6" x1="994.58509" y1="331.57635" x2="817.68506" y2="468.57635"/><line class="cls-5" x1="977.18506" y1="241.67636" x2="829.2851" y2="94.57637"/><line class="cls-5" x1="743.58509" y1="106.27637" x2="572.98511" y2="247.17636"/><line class="cls-7" x1="493.38508" y1="321.47638" x2="338.2851" y2="468.57635"/><path class="cls-8" d="M1194.6,450.3" transform="translate(-115.91491 -98.72363)"/><path class="cls-8" d="M1220.9,570.4" transform="translate(-115.91491 -98.72363)"/><path class="cls-8" d="M848,456.8" transform="translate(-115.91491 -98.72363)"/><path class="cls-8" d="M848,556.1" transform="translate(-115.91491 -98.72363)"/><path class="cls-5" d="M1220.7,239.3" transform="translate(-115.91491 -98.72363)"/><path class="cls-5" d="M1194.9,331.6" transform="translate(-115.91491 -98.72363)"/><path class="cls-5" d="M844.4,225.2" transform="translate(-115.91491 -98.72363)"/><path class="cls-5" d="M844.4,339.3" transform="translate(-115.91491 -98.72363)"/><path class="cls-5" d="M462.9,459.8" transform="translate(-115.91491 -98.72363)"/><path class="cls-5" d="M462.9,556.5" transform="translate(-115.91491 -98.72363)"/><path class="cls-8" d="M465,226.8" transform="translate(-115.91491 -98.72363)"/><path class="cls-8" d="M465,345.6" transform="translate(-115.91491 -98.72363)"/><line class="cls-9" x1="243.38508" y1="458.17639" x2="82.28508" y2="346.77637"/><line class="cls-9" x1="237.7851" y1="72.97636" x2="56.88509" y2="239.57635"/><line class="cls-5" x1="490.98511" y1="293.47638" x2="106.98508" y2="293.17636"/></g><g id="เส้นใหญ่"><line class="cls-10" x1="728.48511" y1="501.17639" x2="335.48508" y2="501.17639"/><line class="cls-11" x1="960.58509" y1="294.57635" x2="596.98511" y2="294.97638"/><line class="cls-12" x1="502.98511" y1="328.37637" x2="337.2851" y2="464.97638"/><line class="cls-10" x1="743.58509" y1="106.27637" x2="572.98511" y2="258.67636"/><line class="cls-10" x1="490.98511" y1="293.47638" x2="106.98508" y2="293.17636"/><path class="cls-10" d="M1220.6,236.5" transform="translate(-115.91491 -98.72363)"/><path class="cls-10" d="M1194.6,335.1" transform="translate(-115.91491 -98.72363)"/><path class="cls-13" d="M462.9,459.8" transform="translate(-115.91491 -98.72363)"/><path class="cls-13" d="M461.9,555.6" transform="translate(-115.91491 -98.72363)"/><path class="cls-10" d="M1221,565.8" transform="translate(-115.91491 -98.72363)"/><path class="cls-10" d="M1194.6,450.3" transform="translate(-115.91491 -98.72363)"/><path class="cls-10" d="M844.4,220.4" transform="translate(-115.91491 -98.72363)"/><path class="cls-10" d="M844.4,339.2" transform="translate(-115.91491 -98.72363)"/><line class="cls-14" x1="243.38508" y1="83.47636" x2="69.78508" y2="241.37637"/></g><text class="cls-15" transform="translate(107.02569 141.00238)">4</text><text class="cls-15" transform="translate(514.92341 44.54956)">7</text><g class="cls-16"><text class="cls-15" transform="translate(107.02559 443.97266)"><tspan xml:space="preserve">18                </tspan></text></g><text class="cls-15" transform="translate(506.47736 562.66565)">11</text><text class="cls-15" transform="translate(924.93287 428.45404)">21</text><text class="cls-15" transform="translate(903.20447 156.27179)">16</text><text class="cls-15" transform="translate(756.76758 268.90668)">14</text><text class="cls-15" transform="translate(274.67359 258.85446)">5</text><text class="cls-15" transform="translate(441.60621 176.90747)">20</text><text class="cls-15" transform="translate(451.58631 428.45435)">6</text><text class="cls-15" transform="translate(615.2038 162.41321)">3</text><text class="cls-17" transform="translate(390.26966 650.24121) scale(0.9371 1)">[ 3, 4, 5, 6, 11, 14 ]</text></svg>