<svg id="Layer_1" data-name="Layer 1" xmlns="http://www.w3.org/2000/svg" viewBox="0 0 1080.2999 711.57715"><defs><style>.cls-1{fill:#fff;stroke-width:14px;}.cls-1,.cls-2,.cls-6,.cls-7,.cls-8{stroke:#000;}.cls-1,.cls-2,.cls-3,.cls-4,.cls-5,.cls-6,.cls-7,.cls-8,.cls-9{stroke-miterlimit:10;}.cls-2{stroke-width:4px;}.cls-10,.cls-3,.cls-4,.cls-5,.cls-6,.cls-7,.cls-8,.cls-9{fill:none;}.cls-3,.cls-9{stroke:#262222;}.cls-3,.cls-4,.cls-5{stroke-width:10px;opacity:0.7;}.cls-11,.cls-3,.cls-4,.cls-5{isolation:isolate;}.cls-4{stroke:#393434;}.cls-5{stroke:#131111;}.cls-6,.cls-9{stroke-width:30px;}.cls-7{stroke-width:29px;}.cls-8{stroke-width:31px;}.cls-11{font-size:60px;font-family:FCHomeRegular, FC Home;}</style></defs><title>minimum_spanning_tree_1</title><g id="Layer_3" data-name="Layer 3"><ellipse class="cls-1" cx="65.09999" cy="85.67715" rx="51.5" ry="50.2"/><path class="cls-2" d="M183.4,190.8a22.02316,22.02316,0,0,1-.9,2.1,15.38444,15.38444,0,0,0-.8,1.9c-.3.6-.5,1.2-.8,1.9s-.6,1.3-.9,2.2c-.2.6-.8.9-1.5,1.3a5.40449,5.40449,0,0,1-2.9.2,4.951,4.951,0,0,1-1.3-.4,5.38753,5.38753,0,0,1-1.3-.7,2.16582,2.16582,0,0,1-.8-.9,1.51466,1.51466,0,0,1,.1-1.3c.1-.2.2-.7.5-1.3a22.88119,22.88119,0,0,1,1-2.3c.3-.8.7-1.7.9-2.4a8.88069,8.88069,0,0,1,.6-1.5c1.1-2.7,2-5.2,2.9-7.4s1.7-4.4,2.6-6.6c1-2.2,1.9-4.4,3-6.7s2.4-4.9,3.9-7.7c.2-.5.7-.8,1.3-1.2a3.803,3.803,0,0,1,2.2-.6,4.282,4.282,0,0,1,2.2.6c.7.4,1.2.8,1.3,1.2,1.5,2.8,2.8,5.3,3.9,7.7,1.1,2.3,2.1,4.5,3,6.7,1,2.2,1.8,4.3,2.6,6.6.9,2.3,1.8,4.7,2.9,7.4.1.2.2.8.5,1.5a24.42668,24.42668,0,0,0,1,2.4c.3.8.7,1.6.9,2.3.3.8.4,1.2.6,1.3a1.51473,1.51473,0,0,1,.1,1.3c-.2.4-.4.8-.8.9a5.38715,5.38715,0,0,1-1.3.7,9.28588,9.28588,0,0,1-1.3.4,4.57985,4.57985,0,0,1-2.9-.2,2.483,2.483,0,0,1-1.5-1.3c-.6-1.6-1.2-2.9-1.6-4a38.874,38.874,0,0,1-1.6-3.9H183.4v-.2Zm7.8-21.2c-.6,1.4-1.2,2.6-1.6,3.8s-1,2.4-1.4,3.7a23.15117,23.15117,0,0,0-1.3,3.7c-.4,1.2-.9,2.5-1.3,3.9h11.7c-1-2.7-1.8-5.3-2.7-7.5C193.5,174.9,192.4,172.4,191.2,169.6Z" transform="translate(-126.10001 -97.92285)"/></g><g id="Layer_4" data-name="Layer 4"><ellipse class="cls-1" cx="59.39999" cy="290.17715" rx="52.39999" ry="53.89999"/><path class="cls-2" d="M205,397.7c0,8.3-4.7,12.8-14.2,12.8H174c-2.7,0-3.7-3.2-3.7-6v-36a3.90042,3.90042,0,0,1,3.7-3.7h15.2c8.1,0,13.2,5,13.2,12.6a10.67355,10.67355,0,0,1-5.7,9.5C201.3,388.4,205,392.8,205,397.7Zm-17-25.8h-9v12.2h9c3.7,0,5.8-2.5,5.8-6.1C193.7,374.4,191.7,371.9,188,371.9Zm8.4,25.1c0-3.7-3.2-6.4-7.5-6.4h-10v12.9h11A6.13382,6.13382,0,0,0,196.4,397Z" transform="translate(-126.10001 -97.92285)"/></g><g id="Layer_5" data-name="Layer 5"><circle class="cls-1" cx="65.09999" cy="520.77716" r="53.5"/><path class="cls-2" d="M179.7,619.5c0,10.5,4.5,15.9,12.9,15.9a16.87243,16.87243,0,0,0,9.4-3.2,4.816,4.816,0,0,1,6.1,1.4c1.3,1.8.4,3.5-1.3,4.6a25.50372,25.50372,0,0,1-14.2,4.3c-14.5,0-21.8-9.1-21.8-23,0-13.1,6.6-23,21.8-23a24.015,24.015,0,0,1,14.2,4.3c1.9,1.4,2.2,2.9.9,5.1-.9,1.8-4.4,1.5-6,.6a15.73388,15.73388,0,0,0-9.1-3C184.2,603.5,179.7,609,179.7,619.5Z" transform="translate(-126.10001 -97.92285)"/><circle class="cls-1" cx="478.39999" cy="70.07715" r="53.5"/><path class="cls-2" d="M628.4,168.1c0,14.8-7.4,22.4-22.2,22.4H594a3.585,3.585,0,0,1-3.6-3.6V149.3a3.585,3.585,0,0,1,3.6-3.6h12.1C620.7,145.6,628.4,153,628.4,168.1Zm-8.7,0c0-10.5-4-15.5-13.5-15.5H599v31h7.1C615.3,183.6,619.7,178.6,619.7,168.1Z" transform="translate(-126.10001 -97.92285)"/><circle class="cls-1" cx="483.80002" cy="284.37714" r="53.5"/><path class="cls-2" d="M602.6,369.6v11.9h15.7c1.7,0,3.7.8,3.7,3.4a3.43786,3.43786,0,0,1-3.3,3.5H602.6V401h19.6c1.9,0,3.8.9,3.8,3.5a3.52334,3.52334,0,0,1-3.4,3.5h-25.1c-2.7,0-3.7-1.5-3.7-4.1V366.8c0-2.4.8-4.1,3.7-4.1H622c2,0,4,1,4,3.5a3.56485,3.56485,0,0,1-3.6,3.5h-.1Z" transform="translate(-126.10001 -97.92285)"/><circle class="cls-1" cx="483.80002" cy="515.07715" r="53.5"/><path class="cls-2" d="M630.8,593.8a3.43785,3.43785,0,0,1-3.3,3.5h-20v11.9h15.7c2.4,0,3.7,1.5,3.7,3.4a3.41557,3.41557,0,0,1-3.7,3.5H607.5v16.4c0,1.8-2,3.5-4.4,3.5s-4.4-1.7-4.4-3.5V594a3.73756,3.73756,0,0,1,3.7-3.6h24.7a3.37857,3.37857,0,0,1,3.6,3.2C630.8,593.5,630.8,593.6,630.8,593.8Z" transform="translate(-126.10001 -97.92285)"/><circle class="cls-1" cx="966.20004" cy="70.07715" r="53.5"/><path class="cls-2" d="M1113.6,170.5c.5,13-5.1,21.5-20.30005,21.7-13.8,0-21.5-9.6-21.5-23,0-13.7,7.5-23,22.7-23,5.6,0,19.19995,3.6,15.9,9a4.00809,4.00809,0,0,1-4.19995,1.6c-4.4-1.5-7.9-3.4-11.69995-3.4-9.1,0-13.80005,5.3-13.80005,15.7,0,8.7,4,15.7,12.9,15.7,8.5,0,11.9-4,12.19995-12.1h-8c-2.5,0-3.4-1.7-3.4-3.7,0-1.9.9-3.7,3.4-3.7h11.4C1112.30005,165.4,1113.5,168.2,1113.6,170.5Z" transform="translate(-126.10001 -97.92285)"/><circle class="cls-1" cx="966.20004" cy="280.77716" r="53.5"/><path class="cls-2" d="M1113.6,358.5v38.9c0,1.8-2,3.5-4.4,3.5s-4.4-1.7-4.4-3.5V381H1084v16.4c0,1.8-1.80005,3.5-4.5,3.5-2.30005,0-4.4-1.7-4.4-3.5V358.5c0-1.8,2.1-3.5,4.4-3.5,2.6,0,4.5,1.6,4.5,3.5v15.7h20.80005V358.5c0-1.8,2-3.5,4.4-3.5S1113.6,356.7,1113.6,358.5Z" transform="translate(-126.10001 -97.92285)"/><circle class="cls-1" cx="963.99997" cy="515.07715" r="53.5"/><path class="cls-2" d="M1094.5,593.6v38.9c0,1.8-1.69995,3.5-4.4,3.5-2.4,0-4.5-1.7-4.5-3.5V593.6c0-1.8,2.1-3.5,4.5-3.5C1092.7,590.1,1094.5,591.7,1094.5,593.6Z" transform="translate(-126.10001 -97.92285)"/></g><g id="Layer_6" data-name="Layer 6"><line class="cls-3" x1="117.39999" y1="74.97714" x2="421.80002" y2="75.87715"/><line class="cls-3" x1="116.39999" y1="285.77716" x2="434.39999" y2="286.77716"/><line class="cls-3" x1="122.29999" y1="526.07715" x2="426.60001" y2="527.07715"/><line class="cls-3" x1="537.30002" y1="74.97714" x2="910.49997" y2="76.17715"/><line class="cls-3" x1="540.99997" y1="286.87714" x2="910.49997" y2="287.97714"/><line class="cls-3" x1="540.39999" y1="525.57715" x2="906.30002" y2="526.77716"/><line class="cls-4" x1="105.79999" y1="112.37715" x2="430.30002" y2="258.37714"/><line class="cls-3" x1="106.39999" y1="321.87714" x2="432.89999" y2="485.57715"/><line class="cls-3" x1="531.89999" y1="488.57715" x2="916.30002" y2="312.57715"/><line class="cls-5" x1="533.69998" y1="255.47714" x2="919.49997" y2="98.07715"/><line class="cls-4" x1="59.39999" y1="131.27715" x2="59.7" y2="230.87714"/><line class="cls-4" x1="479.89999" y1="126.67715" x2="479.89999" y2="225.77716"/><line class="cls-3" x1="59.29999" y1="349.37714" x2="59.59999" y2="461.57715"/><line class="cls-3" x1="483.80002" y1="342.97714" x2="483.80002" y2="456.77716"/><line class="cls-3" x1="968.39999" y1="127.47714" x2="968.39999" y2="223.97714"/><line class="cls-4" x1="966.20004" y1="337.87714" x2="966.20004" y2="456.37714"/></g><g id="Layer_8" data-name="Layer 8"><line class="cls-6" x1="116.59999" y1="73.57715" x2="422.49997" y2="74.77715"/><line class="cls-7" x1="116.59999" y1="285.27716" x2="427.69998" y2="287.17715"/><line class="cls-8" x1="540.99997" y1="286.87714" x2="910.49997" y2="287.97714"/><line class="cls-6" x1="537.30002" y1="525.57715" x2="910.49997" y2="525.37714"/><line class="cls-6" x1="122.5" y1="524.07715" x2="430.30002" y2="527.57715"/><line class="cls-9" x1="966.20004" y1="337.87714" x2="966.20004" y2="456.37714"/><line class="cls-9" x1="969.49997" y1="128.37715" x2="968.39999" y2="223.97714"/><line class="cls-9" x1="59.7" y1="230.87714" x2="59.29999" y2="135.87715"/></g><g id="Layer_7" data-name="Layer 7"><rect class="cls-10" x="234.79999" y="13.17715" width="111.19998" height="44.7"/><text class="cls-11" transform="translate(234.83218 44.54956)">10</text><rect class="cls-10" x="697.80002" y="20.77715" width="101.59998" height="46"/><text class="cls-11" transform="translate(697.78128 52.12378)">20</text><rect class="cls-10" x="249.19998" y="228.77716" width="124" height="56.70001"/><text class="cls-11" transform="translate(249.2067 260.19864)">2</text><rect class="cls-10" x="699.39999" y="229.87714" width="126.20001" height="69.5"/><text class="cls-11" transform="translate(699.371 261.28775)">3</text><rect class="cls-10" x="232.60001" y="466.47717" width="173.20001" height="110.09998"/><text class="cls-11" transform="translate(232.60669 497.89557)">11</text><rect class="cls-10" x="710.69998" y="463.77716" width="117.59998" height="69.5"/><text class="cls-11" transform="translate(710.70309 495.18713)">1</text><rect class="cls-10" x="81.5" y="169.67715" width="154" height="82.30002"/><text class="cls-11" transform="translate(81.4646 201.04623)">9</text><rect class="cls-10" x="78.89999" y="387.67715" width="104.79999" height="69.49997"/><text class="cls-11" transform="translate(78.9034 419.09064)">16</text><rect class="cls-10" x="240.10001" y="127.27715" width="125.10001" height="96.2"/><text class="cls-11" transform="translate(240.09268 158.65491)">14</text><rect class="cls-10" x="255.60001" y="353.87714" width="102.70001" height="86.59998"/><text class="cls-11" transform="translate(255.6228 385.20755)">8</text><rect class="cls-10" x="506.69998" y="160.37714" width="61.29999" height="38.5"/><text class="cls-11" transform="translate(506.65891 191.77686)">13</text><rect class="cls-10" x="494.39999" y="377.67715" width="49.90002" height="74.89999"/><text class="cls-11" transform="translate(494.431 409.03876)">15</text><rect class="cls-10" x="692.49997" y="118.87715" width="77" height="77.7"/><text class="cls-11" transform="translate(692.52481 150.21735)">18</text><rect class="cls-10" x="708.10001" y="340.97714" width="139.70001" height="73.39999"/><text class="cls-11" transform="translate(708.08438 372.32556)">7</text><rect class="cls-10" x="912.70004" y="164.07715" width="114.80005" height="104.10001"/><text class="cls-11" transform="translate(912.67734 195.47375)">4</text><rect class="cls-10" x="910.49997" y="383.67715" width="52" height="61.30002"/><text class="cls-11" transform="translate(910.46213 415.09753)">6</text></g><rect class="cls-10" x="304.69998" y="611.77716" width="775.59991" height="99.79999"/><text class="cls-11" transform="translate(304.698 643.15973)">[ 1, 2, 3, 4, 6, 9, 10, 11 ]</text></svg>