<svg id="Layer_1" data-name="Layer 1" xmlns="http://www.w3.org/2000/svg" viewBox="0 0 775.12537 757.7503"><defs><style>.cls-1,.cls-3,.cls-5{fill:#fff;}.cls-1,.cls-15,.cls-16,.cls-17,.cls-19,.cls-2,.cls-20,.cls-3,.cls-4,.cls-5,.cls-6{stroke:#000;}.cls-1,.cls-10,.cls-11,.cls-12,.cls-13,.cls-14,.cls-15,.cls-16,.cls-17,.cls-18,.cls-19,.cls-2,.cls-20,.cls-3,.cls-4,.cls-5,.cls-6,.cls-7,.cls-8,.cls-9{stroke-miterlimit:10;}.cls-1{stroke-width:13.5006px;}.cls-2{stroke-width:3.8573px;}.cls-3{stroke-width:13.2346px;}.cls-4{stroke-width:3.7813px;}.cls-5{stroke-width:13.1373px;}.cls-6{stroke-width:3.7535px;}.cls-10,.cls-11,.cls-12,.cls-13,.cls-14,.cls-15,.cls-16,.cls-17,.cls-18,.cls-19,.cls-20,.cls-21,.cls-7,.cls-8,.cls-9{fill:none;}.cls-12,.cls-13,.cls-14,.cls-18,.cls-7,.cls-9{stroke:#262222;}.cls-10,.cls-11,.cls-7{stroke-width:10px;}.cls-10,.cls-11,.cls-12,.cls-13,.cls-14,.cls-7,.cls-8,.cls-9{opacity:0.7;}.cls-10,.cls-11,.cls-12,.cls-13,.cls-14,.cls-22,.cls-23,.cls-7,.cls-8,.cls-9{isolation:isolate;}.cls-11,.cls-8{stroke:#393434;}.cls-8{stroke-width:10.6071px;}.cls-9{stroke-width:9.135px;}.cls-10{stroke:#131111;}.cls-12{stroke-width:10.16725px;}.cls-13{stroke-width:10.3614px;}.cls-14{stroke-width:9.1899px;}.cls-15,.cls-18{stroke-width:29.0791px;}.cls-16{stroke-width:28.1098px;}.cls-17{stroke-width:28.5628px;}.cls-19{stroke-width:30.6064px;}.cls-20{stroke-width:28.889px;}.cls-22{font-size:60px;}.cls-22,.cls-23{font-family:FCHomeRegular, FC Home;}.cls-23{font-size:58.8941px;}</style></defs><title>minimum_spanning_tree_7</title><g id="โหนด"><ellipse class="cls-1" cx="74.2254" cy="452.4503" rx="49.60001" ry="53.59998"/><path class="cls-2" d="M380.6,495.5c0,10.5,4.2,15.9,12,15.9a14.76374,14.76374,0,0,0,8.7-3.2,4.15964,4.15964,0,0,1,5.6,1.4c1.2,1.8.4,3.5-1.2,4.6a22.395,22.395,0,0,1-13.2,4.3c-13.5,0-20.2-9.1-20.2-23.1,0-13.1,6.1-23.1,20.2-23.1a21.10383,21.10383,0,0,1,13.2,4.3c1.8,1.4,2.1,2.9.8,5.1-.8,1.8-4.1,1.5-5.5.6a13.692,13.692,0,0,0-8.4-3C384.8,479.4,380.6,484.9,380.6,495.5Z" transform="translate(-316.97461 -42.2497)"/><ellipse class="cls-1" cx="315.32538" cy="568.05028" rx="49.59998" ry="53.59998"/><path class="cls-2" d="M651.9,610.3c0,14.8-6.8,22.5-20.6,22.5H620a3.48259,3.48259,0,0,1-3.4-3.6V591.5a3.48259,3.48259,0,0,1,3.4-3.6h11.2C644.8,587.7,651.9,595.2,651.9,610.3Zm-8.1,0c0-10.5-3.7-15.5-12.6-15.5h-6.6v31.1h6.6C639.7,625.8,643.8,620.8,643.8,610.3Z" transform="translate(-316.97461 -42.2497)"/><ellipse class="cls-1" cx="315.2254" cy="307.95031" rx="49.59998" ry="53.60001"/><path class="cls-2" d="M625.5,337.5v11.9H640a3.20416,3.20416,0,0,1,3.5,3.4,3.3429,3.3429,0,0,1-3.1,3.5h-14.9v12.6h18.2a3.26858,3.26858,0,0,1,3.6,3.5,3.42407,3.42407,0,0,1-3.2,3.5H620.8c-2.5,0-3.5-1.5-3.5-4.1V334.6c0-2.4.7-4.1,3.5-4.1h22.8c1.9,0,3.7,1,3.7,3.5a3.45773,3.45773,0,0,1-3.4,3.5h-.1Z" transform="translate(-316.97461 -42.2497)"/><ellipse class="cls-1" cx="581.02539" cy="455.65029" rx="49.59998" ry="53.60001"/><path class="cls-2" d="M917.4,478.6a3.34289,3.34289,0,0,1-3.1,3.5h-18.5V494h14.5a3.45036,3.45036,0,1,1,0,6.9h-14.5v16.4c0,1.8-1.9,3.5-4.1,3.5s-4.1-1.7-4.1-3.5V478.7a3.63175,3.63175,0,0,1,3.5-3.6H914a3.26261,3.26261,0,0,1,3.4,3.2Z" transform="translate(-316.97461 -42.2497)"/><ellipse class="cls-1" cx="581.02539" cy="215.7503" rx="49.59998" ry="53.60001"/><path class="cls-2" d="M917.7,260.5c.5,13-4.8,21.6-18.8,21.8-12.8,0-20-9.6-20-23.1,0-13.7,6.9-23.1,21.1-23.1,5.1,0,17.8,3.6,14.7,9a3.56661,3.56661,0,0,1-3.9,1.6c-4.1-1.5-7.3-3.4-10.9-3.4-8.4,0-12.8,5.3-12.8,15.7,0,8.7,3.7,15.7,12,15.7,7.9,0,11.1-4,11.3-12.1H903c-2.3,0-3.2-1.7-3.2-3.7,0-1.9.8-3.7,3.2-3.7h10.6C916.5,255.4,917.6,258.2,917.7,260.5Z" transform="translate(-316.97461 -42.2497)"/><path class="cls-3" d="M1137.7,114.7" transform="translate(-316.97461 -42.2497)"/><path class="cls-3" d="M1176.2,10.4" transform="translate(-316.97461 -42.2497)"/><path class="cls-4" d="M1191.6,39.7" transform="translate(-316.97461 -42.2497)"/><path class="cls-4" d="M1164.5,39.7" transform="translate(-316.97461 -42.2497)"/><g id="Layer_3" data-name="Layer 3"><ellipse class="cls-1" cx="319.62537" cy="57.0503" rx="47.79999" ry="50.3"/><path class="cls-2" d="M629.4,106.5c-.3.8-.6,1.5-.8,2.1a7.31468,7.31468,0,0,0-.7,1.9,10.66473,10.66473,0,0,0-.7,1.9,11.25816,11.25816,0,0,0-.8,2.2c-.2.6-.7.9-1.4,1.3a4.68043,4.68043,0,0,1-2.7.2,4.23451,4.23451,0,0,1-1.2-.4,4.72846,4.72846,0,0,1-1.2-.7c-.4-.3-.7-.6-.7-.9a1.51482,1.51482,0,0,1,.1-1.3c.1-.2.2-.7.5-1.3.3-.8.6-1.5.9-2.3a13.48678,13.48678,0,0,0,.8-2.4,8.88577,8.88577,0,0,1,.6-1.5c1-2.7,1.9-5.2,2.7-7.4s1.6-4.4,2.4-6.6c.9-2.2,1.8-4.4,2.8-6.7s2.2-4.9,3.7-7.7c.2-.5.7-.8,1.2-1.2a3.28112,3.28112,0,0,1,2.1-.6,4.20022,4.20022,0,0,1,2.1.6q1.04994.6,1.2,1.2c1.4,2.8,2.6,5.3,3.7,7.7,1,2.3,2,4.5,2.8,6.7.9,2.2,1.7,4.3,2.4,6.6.8,2.3,1.7,4.7,2.7,7.4.1.2.2.8.5,1.5q.45,1.2.9,2.4a12.66025,12.66025,0,0,1,.8,2.3c.3.8.4,1.2.6,1.3a1.51461,1.51461,0,0,1,.1,1.3c-.2.4-.4.8-.7.9a4.72823,4.72823,0,0,1-1.2.7,8.39782,8.39782,0,0,1-1.2.4,3.97368,3.97368,0,0,1-2.7-.2,2.57179,2.57179,0,0,1-1.4-1.3c-.6-1.6-1.1-2.9-1.5-4a40.37677,40.37677,0,0,1-1.5-3.9H630v-.2Zm7.2-21.2c-.6,1.4-1.1,2.6-1.5,3.8s-.9,2.4-1.3,3.7a22.84928,22.84928,0,0,0-1.2,3.7q-.6,1.8-1.2,3.9h10.9c-.9-2.7-1.7-5.3-2.5-7.5C638.8,90.6,637.8,88.1,636.6,85.3Z" transform="translate(-316.97461 -42.2497)"/></g><g id="Layer_4" data-name="Layer 4"><ellipse class="cls-5" cx="66.32538" cy="200.65029" rx="48.60001" ry="51.10001"/><path class="cls-6" d="M401.4,252c0,7.9-4.4,12.1-13.2,12.1H372.7c-2.5,0-3.5-3-3.5-5.7V224.2a3.68548,3.68548,0,0,1,3.5-3.5h14.1c7.5,0,12.3,4.7,12.3,11.9a10.33989,10.33989,0,0,1-5.2,9C398,243.2,401.4,247.4,401.4,252Zm-15.7-24.4h-8.3v11.6h8.3c3.5,0,5.3-2.4,5.3-5.8C390.9,230,389.1,227.6,385.7,227.6Zm7.8,23.8c0-3.5-3-6.1-6.9-6.1h-9.3v12.2h10.2A5.79475,5.79475,0,0,0,393.5,251.4Z" transform="translate(-316.97461 -42.2497)"/></g></g><g id="เส้นเล็ก"><path class="cls-7" d="M376.9,172.3" transform="translate(-316.97461 -42.2497)"/><path class="cls-7" d="M100.1,177.4" transform="translate(-316.97461 -42.2497)"/><path class="cls-7" d="M370.3,627.2" transform="translate(-316.97461 -42.2497)"/><path class="cls-7" d="M104.7,629.6" transform="translate(-316.97461 -42.2497)"/><line class="cls-7" x1="539.52539" y1="485.15032" x2="367.42542" y2="555.7503"/><line class="cls-8" x1="56.92538" y1="398.8503" x2="56.92538" y2="254.3503"/><line class="cls-7" x1="106.52539" y1="218.95031" x2="265.52539" y2="289.2503"/><line class="cls-9" x1="265.52539" y1="561.95031" x2="103.42538" y2="489.15032"/><line class="cls-10" x1="321.7254" y1="248.45031" x2="324.7254" y2="114.0503"/><line class="cls-10" x1="315.52539" y1="508.65032" x2="318.42542" y2="366.05028"/><path class="cls-11" d="M76.8,331.5" transform="translate(-316.97461 -42.2497)"/><path class="cls-11" d="M46.4,233.8" transform="translate(-316.97461 -42.2497)"/><path class="cls-11" d="M430.7,322.6" transform="translate(-316.97461 -42.2497)"/><path class="cls-11" d="M430.7,223.3" transform="translate(-316.97461 -42.2497)"/><path class="cls-7" d="M46.6,564.9" transform="translate(-316.97461 -42.2497)"/><path class="cls-7" d="M76.5,450.3" transform="translate(-316.97461 -42.2497)"/><path class="cls-7" d="M434.4,554.2" transform="translate(-316.97461 -42.2497)"/><path class="cls-7" d="M434.4,440.1" transform="translate(-316.97461 -42.2497)"/><path class="cls-7" d="M800.9,322.1" transform="translate(-316.97461 -42.2497)"/><path class="cls-7" d="M800.9,225.4" transform="translate(-316.97461 -42.2497)"/><path class="cls-11" d="M798.9,555.1" transform="translate(-316.97461 -42.2497)"/><path class="cls-11" d="M798.9,436.3" transform="translate(-316.97461 -42.2497)"/><line class="cls-7" x1="361.42542" y1="81.45029" x2="541.42542" y2="181.0503"/><line class="cls-12" x1="585.52539" y1="398.46317" x2="585.52539" y2="269.3503"/><line class="cls-7" x1="106.52539" y1="186.7503" x2="280.32538" y2="85.6503"/><line class="cls-13" x1="350.52539" y1="345.65029" x2="533.2254" y2="441.2503"/><line class="cls-14" x1="116.1254" y1="434.45031" x2="276.62537" y2="347.7503"/><line class="cls-7" x1="361.12537" y1="297.3503" x2="531.32538" y2="222.55028"/></g><g id="เส้นใหญ่"><line class="cls-15" x1="113.7254" y1="181.0503" x2="280.32538" y2="85.6503"/><line class="cls-16" x1="56.92538" y1="402.15029" x2="56.92538" y2="254.3503"/><line class="cls-17" x1="355.32538" y1="339.45031" x2="539.52539" y2="437.3503"/><line class="cls-15" x1="361.42542" y1="81.45029" x2="541.42542" y2="181.0503"/><path class="cls-15" d="M1061.9,386.3" transform="translate(-316.97461 -42.2497)"/><path class="cls-15" d="M654,385.6" transform="translate(-316.97461 -42.2497)"/><path class="cls-15" d="M59.9,564" transform="translate(-316.97461 -42.2497)"/><path class="cls-15" d="M90.3,443.1" transform="translate(-316.97461 -42.2497)"/><path class="cls-18" d="M821.9,318.4" transform="translate(-316.97461 -42.2497)"/><path class="cls-18" d="M823,222.6" transform="translate(-316.97461 -42.2497)"/><path class="cls-15" d="M59.5,234.7" transform="translate(-316.97461 -42.2497)"/><path class="cls-15" d="M90.3,327.8" transform="translate(-316.97461 -42.2497)"/><path class="cls-15" d="M440.5,557.8" transform="translate(-316.97461 -42.2497)"/><path class="cls-15" d="M440.5,439" transform="translate(-316.97461 -42.2497)"/><line class="cls-19" x1="367.42542" y1="555.7503" x2="539.52539" y2="485.15032"/><line class="cls-20" x1="265.52539" y1="561.95031" x2="108.32538" y2="491.35027"/></g><path class="cls-21" d="M542.8,185.6H460.1v-34a24.53977,24.53977,0,0,1,24.5-24.5h58.2Z" transform="translate(-316.97461 -42.2497)"/><text class="cls-22" transform="translate(155.6506 116.23351)">9</text><text class="cls-22" transform="translate(173.63898 232.95403)">15</text><text class="cls-22" transform="translate(-0.00021 343.3503)">7</text><text class="cls-22" transform="translate(134.72302 372.01409)">21A</text><text class="cls-22" transform="translate(134.72321 583.63482)">12</text><text class="cls-22" transform="translate(254.203 455.72811)">14</text><text class="cls-22" transform="translate(393.92621 437.32488)">11</text><text class="cls-22" transform="translate(439.54968 307.98269)">19</text><text class="cls-22" transform="translate(337.63672 215.27068)">16</text><text class="cls-22" transform="translate(463.46136 107.36199)">21B</text><text class="cls-22" transform="translate(600.71381 357.75039)">22</text><text class="cls-22" transform="translate(453.4812 576.63958)">13</text><polygon class="cls-21" points="765.725 757.75 141.225 757.75 150.625 674.35 775.125 674.35 765.725 757.75"/><text class="cls-23" transform="translate(150.26025 705.1458) scale(0.9371 1)">[ 7, 9, 11, 12, 13, 21B ]</text></svg>