<svg id="Layer_1" data-name="Layer 1" xmlns="http://www.w3.org/2000/svg" viewBox="0 0 1062.07015 688.02875"><defs><style>.cls-1,.cls-3{fill:#fff;}.cls-1,.cls-11,.cls-12,.cls-13,.cls-15,.cls-16,.cls-2,.cls-3,.cls-4{stroke:#000;}.cls-1,.cls-10,.cls-11,.cls-12,.cls-13,.cls-14,.cls-15,.cls-16,.cls-19,.cls-2,.cls-3,.cls-4,.cls-5,.cls-6,.cls-7,.cls-8,.cls-9{stroke-miterlimit:10;}.cls-1{stroke-width:13.5702px;}.cls-2{stroke-width:3.8772px;}.cls-3{stroke-width:13.3029px;}.cls-4{stroke-width:3.8008px;}.cls-10,.cls-11,.cls-12,.cls-13,.cls-14,.cls-15,.cls-16,.cls-17,.cls-19,.cls-5,.cls-6,.cls-7,.cls-8,.cls-9{fill:none;}.cls-10,.cls-14,.cls-19,.cls-5,.cls-6{stroke:#262222;}.cls-5,.cls-8,.cls-9{stroke-width:9.693px;}.cls-10,.cls-19,.cls-5,.cls-6,.cls-7,.cls-8,.cls-9{opacity:0.7;}.cls-10,.cls-18,.cls-19,.cls-5,.cls-6,.cls-7,.cls-8,.cls-9{isolation:isolate;}.cls-6{stroke-width:9.723px;}.cls-7,.cls-9{stroke:#393434;}.cls-7{stroke-width:10.1156px;}.cls-8{stroke:#131111;}.cls-10{stroke-width:9.6909px;}.cls-11,.cls-14{stroke-width:29.0791px;}.cls-12{stroke-width:28.1098px;}.cls-13{stroke-width:28.5628px;}.cls-15{stroke-width:30.6064px;}.cls-16{stroke-width:28.889px;}.cls-18{font-size:58.8941px;font-family:FCHomeRegular, FC Home;}.cls-19{stroke-width:9.7px;}</style></defs><title>minimum_spanning_tree_6</title><g id="โหนด"><ellipse class="cls-1" cx="282.88509" cy="511.02869" rx="50.10001" ry="53.59998"/><path class="cls-2" d="M379.1,611.9c0,10.5,4.2,15.9,12.1,15.9a15.05431,15.05431,0,0,0,8.8-3.2,4.30544,4.30544,0,0,1,5.7,1.4c1.2,1.8.4,3.5-1.2,4.6a22.6953,22.6953,0,0,1-13.3,4.3c-13.6,0-20.4-9.1-20.4-23.1,0-13.1,6.2-23.1,20.4-23.1a21.38531,21.38531,0,0,1,13.3,4.3c1.8,1.4,2.1,2.9.8,5.1-.8,1.8-4.1,1.5-5.6.6a13.97317,13.97317,0,0,0-8.5-3C383.3,595.8,379.1,601.3,379.1,611.9Z" transform="translate(-106.9149 -100.07129)"/><ellipse class="cls-1" cx="506.28512" cy="283.52872" rx="50.09998" ry="53.60001"/><path class="cls-2" d="M635.6,383.7c0,14.8-6.9,22.5-20.8,22.5H603.4a3.4826,3.4826,0,0,1-3.4-3.6V364.9a3.4826,3.4826,0,0,1,3.4-3.6h11.3C628.4,361.1,635.6,368.6,635.6,383.7Zm-8.2,0c0-10.5-3.7-15.5-12.7-15.5H608v31.1h6.7C623.3,399.2,627.4,394.2,627.4,383.7Z" transform="translate(-106.9149 -100.07129)"/><ellipse class="cls-1" cx="772.28512" cy="97.3287" rx="50.09998" ry="53.60001"/><path class="cls-2" d="M872.4,184.7v11.9h14.7a3.20417,3.20417,0,0,1,3.5,3.4,3.34289,3.34289,0,0,1-3.1,3.5h-15.1v12.6h18.4a3.26858,3.26858,0,0,1,3.6,3.5,3.42409,3.42409,0,0,1-3.2,3.5h-23.5c-2.5,0-3.5-1.5-3.5-4.1V181.8c0-2.4.7-4.1,3.5-4.1h23c1.9,0,3.7,1,3.7,3.5a3.45772,3.45772,0,0,1-3.4,3.5h-.1Z" transform="translate(-106.9149 -100.07129)"/><ellipse class="cls-1" cx="772.28512" cy="511.82874" rx="50.09998" ry="53.59998"/><path class="cls-2" d="M898.8,592.6a3.34286,3.34286,0,0,1-3.1,3.5H877V608h14.7a3.45037,3.45037,0,1,1,0,6.9H877v16.4c0,1.8-1.9,3.5-4.1,3.5s-4.1-1.7-4.1-3.5v-38.6a3.63173,3.63173,0,0,1,3.5-3.6h23.1a3.26265,3.26265,0,0,1,3.4,3.2Z" transform="translate(-106.9149 -100.07129)"/><ellipse class="cls-1" cx="1005.18508" cy="286.2287" rx="50.09998" ry="53.60001"/><path class="cls-2" d="M1132,388.8c.5,13-4.80005,21.6-19,21.8-12.9,0-20.19995-9.6-20.19995-23.1,0-13.7,7-23.1,21.30005-23.1,5.19995,0,18,3.6,14.9,9a3.56668,3.56668,0,0,1-3.9,1.6c-4.1-1.5-7.4-3.4-11-3.4-8.5,0-12.9,5.3-12.9,15.7,0,8.7,3.69995,15.7,12.1,15.7,8,0,11.19995-4,11.4-12.1h-7.5c-2.30005,0-3.2-1.7-3.2-3.7,0-1.9.80005-3.7,3.2-3.7H1127.9C1130.80005,383.7,1131.9,386.5,1132,388.8Z" transform="translate(-106.9149 -100.07129)"/><path class="cls-3" d="M1162.2,111" transform="translate(-106.9149 -100.07129)"/><path class="cls-3" d="M1201.1,6.7" transform="translate(-106.9149 -100.07129)"/><path class="cls-4" d="M1216.6,36" transform="translate(-106.9149 -100.07129)"/><path class="cls-4" d="M1189.30005,36" transform="translate(-106.9149 -100.07129)"/><g id="Layer_3" data-name="Layer 3"><ellipse class="cls-1" cx="55.0851" cy="298.12872" rx="48.3" ry="50.29999"/><path class="cls-2" d="M154.7,405.4c-.3.8-.6,1.5-.8,2.1a7.31273,7.31273,0,0,0-.7,1.9,10.66248,10.66248,0,0,0-.7,1.9,11.25543,11.25543,0,0,0-.8,2.2c-.2.6-.7.9-1.4,1.3a4.68063,4.68063,0,0,1-2.7.2,4.23505,4.23505,0,0,1-1.2-.4,4.72787,4.72787,0,0,1-1.2-.7c-.4-.3-.7-.6-.7-.9a1.51464,1.51464,0,0,1,.1-1.3c.1-.2.2-.7.5-1.3.3-.8.6-1.5.9-2.3a13.49359,13.49359,0,0,0,.8-2.4,8.88106,8.88106,0,0,1,.6-1.5c1-2.7,1.9-5.2,2.7-7.4s1.6-4.4,2.4-6.6c.9-2.2,1.8-4.4,2.8-6.7s2.2-4.9,3.7-7.7c.2-.5.7-.8,1.2-1.2a3.28093,3.28093,0,0,1,2.1-.6,4.20054,4.20054,0,0,1,2.1.6q1.05.6,1.2,1.2c1.4,2.8,2.6,5.3,3.7,7.7,1,2.3,2,4.5,2.8,6.7.9,2.2,1.7,4.3,2.4,6.6.8,2.3,1.7,4.7,2.7,7.4.1.2.2.8.5,1.5q.45,1.2.9,2.4a12.66628,12.66628,0,0,1,.8,2.3c.3.8.4,1.2.6,1.3a1.51471,1.51471,0,0,1,.1,1.3c-.2.4-.4.8-.7.9a4.72852,4.72852,0,0,1-1.2.7,8.39754,8.39754,0,0,1-1.2.4,3.97345,3.97345,0,0,1-2.7-.2,2.57165,2.57165,0,0,1-1.4-1.3c-.6-1.6-1.1-2.9-1.5-4a40.37752,40.37752,0,0,1-1.5-3.9H155.1v-.2Zm7.3-21.2c-.6,1.4-1.1,2.6-1.5,3.8s-.9,2.4-1.3,3.7a22.85133,22.85133,0,0,0-1.2,3.7q-.6,1.8-1.2,3.9h11c-.9-2.7-1.7-5.3-2.5-7.5C164.2,389.5,163.2,387,162,384.2Z" transform="translate(-106.9149 -100.07129)"/></g><g id="Layer_4" data-name="Layer 4"><ellipse class="cls-1" cx="288.9851" cy="88.3287" rx="49.10001" ry="54"/><path class="cls-2" d="M414.2,198c0,8.3-4.4,12.8-13.3,12.8H385.2c-2.5,0-3.5-3.2-3.5-6V168.7a3.79759,3.79759,0,0,1,3.5-3.7h14.2c7.6,0,12.4,5,12.4,12.6a10.922,10.922,0,0,1-5.3,9.5A12.127,12.127,0,0,1,414.2,198Zm-15.9-25.8h-8.4v12.2h8.4c3.5,0,5.4-2.5,5.4-6.1C403.6,174.7,401.7,172.2,398.3,172.2Zm7.9,25.1c0-3.7-3-6.4-7-6.4h-9.4v12.9h10.3C403.3,203.8,406.2,201.6,406.2,197.3Z" transform="translate(-106.9149 -100.07129)"/></g></g><g id="เส้นเล็ก"><path class="cls-5" d="M382.4,171.1" transform="translate(-106.9149 -100.07129)"/><path class="cls-5" d="M113.9,173.7" transform="translate(-106.9149 -100.07129)"/><line class="cls-5" x1="103.38511" y1="287.42871" x2="455.48513" y2="283.42871"/><path class="cls-5" d="M386.9,623.5" transform="translate(-106.9149 -100.07129)"/><path class="cls-5" d="M118.5,625.9" transform="translate(-106.9149 -100.07129)"/><line class="cls-5" x1="342.0851" y1="78.22871" x2="722.18508" y2="78.22871"/><line class="cls-6" x1="546.0851" y1="316.12872" x2="737.5851" y2="473.12872"/><line class="cls-5" x1="338.0851" y1="515.92871" x2="718.98513" y2="515.92871"/><line class="cls-7" x1="67.4851" y1="247.8287" x2="244.38509" y2="110.8287"/><line class="cls-5" x1="84.88511" y1="337.7287" x2="232.78512" y2="484.82874"/><line class="cls-5" x1="318.4851" y1="473.12872" x2="474.38509" y2="329.8287"/><line class="cls-8" x1="553.98513" y1="255.62872" x2="723.78512" y2="110.8287"/><path class="cls-9" d="M90.3,327.8" transform="translate(-106.9149 -100.07129)"/><path class="cls-9" d="M59.6,230.1" transform="translate(-106.9149 -100.07129)"/><path class="cls-9" d="M436.8,321.4" transform="translate(-106.9149 -100.07129)"/><path class="cls-9" d="M436.8,222.1" transform="translate(-106.9149 -100.07129)"/><path class="cls-5" d="M59.8,561.2" transform="translate(-106.9149 -100.07129)"/><path class="cls-5" d="M90,446.6" transform="translate(-106.9149 -100.07129)"/><path class="cls-5" d="M440.5,553" transform="translate(-106.9149 -100.07129)"/><path class="cls-5" d="M440.5,438.9" transform="translate(-106.9149 -100.07129)"/><path class="cls-5" d="M821.9,318.4" transform="translate(-106.9149 -100.07129)"/><path class="cls-5" d="M821.9,221.7" transform="translate(-106.9149 -100.07129)"/><path class="cls-9" d="M819.9,551.4" transform="translate(-106.9149 -100.07129)"/><path class="cls-9" d="M819.9,432.6" transform="translate(-106.9149 -100.07129)"/><line class="cls-10" x1="818.68508" y1="121.22871" x2="982.67917" y2="234.62999"/><line class="cls-10" x1="824.28512" y1="506.42871" x2="1005.18508" y2="339.8287"/><line class="cls-5" x1="556.38509" y1="283.52872" x2="954.98513" y2="286.2287"/></g><g id="เส้นใหญ่"><line class="cls-11" x1="333.5851" y1="78.22871" x2="726.48513" y2="78.22871"/><line class="cls-12" x1="101.4851" y1="284.8287" x2="455.48513" y2="283.42871"/><line class="cls-13" x1="546.0851" y1="316.12872" x2="737.5851" y2="473.12872"/><line class="cls-11" x1="338.0851" y1="515.92871" x2="726.48513" y2="515.92871"/><path class="cls-11" d="M1061.9,386.3" transform="translate(-106.9149 -100.07129)"/><path class="cls-11" d="M654,385.6" transform="translate(-106.9149 -100.07129)"/><path class="cls-11" d="M59.9,564" transform="translate(-106.9149 -100.07129)"/><path class="cls-11" d="M90.3,443.1" transform="translate(-106.9149 -100.07129)"/><path class="cls-14" d="M821.9,318.4" transform="translate(-106.9149 -100.07129)"/><path class="cls-14" d="M823,222.6" transform="translate(-106.9149 -100.07129)"/><path class="cls-11" d="M59.5,234.7" transform="translate(-106.9149 -100.07129)"/><path class="cls-11" d="M90.3,327.8" transform="translate(-106.9149 -100.07129)"/><path class="cls-11" d="M440.5,557.8" transform="translate(-106.9149 -100.07129)"/><path class="cls-11" d="M440.5,439" transform="translate(-106.9149 -100.07129)"/><line class="cls-15" x1="818.68508" y1="495.92871" x2="992.28505" y2="338.02871"/><line class="cls-16" x1="474.38509" y1="242.2287" x2="329.9851" y2="126.8287"/></g><g id="เลข"><polygon class="cls-17" points="229.085 21.429 314.885 18.129 255.185 67.829 152.885 67.829 229.085 21.429"/><rect class="cls-17" x="578.78512" y="31.42871" width="93.5" height="45.2"/><text class="cls-18" transform="translate(511.23012 43.7287) scale(0.9371 1)">12B</text><rect class="cls-17" x="166.0851" y="235.62872" width="114.10001" height="55.70001"/><rect class="cls-17" x="580.18508" y="236.62872" width="116.09998" height="68.20001"/><polygon class="cls-17" points="150.885 468.929 293.685 465.529 293.685 573.629 150.885 576.929 150.885 468.929"/><text class="cls-18" transform="translate(105.87124 449.46191) scale(0.9371 1)">15</text><rect class="cls-17" x="590.5851" y="466.2287" width="108.20001" height="68.20001"/><text class="cls-18" transform="translate(329.88491 391.56055) scale(0.9371 1)">18</text><rect class="cls-17" x="11.88511" y="177.52872" width="141.7" height="80.80002"/><rect class="cls-17" x="9.4851" y="391.52872" width="96.4" height="68.19998"/><rect class="cls-17" x="157.78512" y="135.92871" width="115.10001" height="94.39999"/><text class="cls-18" transform="translate(60.88516 162.38477) scale(0.9371 1)">14A</text><rect class="cls-17" x="171.9851" y="358.42871" width="94.5" height="85"/><polygon class="cls-17" points="386.485 165.129 459.385 168.429 459.385 206.229 386.485 202.829 386.485 165.129"/><text class="cls-18" transform="translate(244.38509 258.32855) scale(0.9371 1)">12A</text><polygon class="cls-17" points="375.185 378.429 446.885 379.729 437.585 455.229 375.185 451.929 375.185 378.429"/><rect class="cls-17" x="573.88509" y="127.72871" width="70.79999" height="76.3"/><text class="cls-18" transform="translate(573.88491 179.32861) scale(0.9371 1)">13</text><rect class="cls-17" x="588.28512" y="345.7287" width="128.5" height="72"/><text class="cls-18" transform="translate(511.22994 477.93102) scale(0.9371 1)">11A</text><rect class="cls-17" x="688.5851" y="167.52872" width="105.59998" height="102.19998"/><rect class="cls-17" x="686.48513" y="383.12872" width="47.79999" height="60.20001"/><text class="cls-18" transform="translate(652.5353 383.12891) scale(0.9371 1)">14B</text><rect class="cls-17" x="890.18508" y="131.62871" width="98.40002" height="67.00002"/><text class="cls-18" transform="translate(890.23354 162.38477) scale(0.9371 1)">20</text><rect class="cls-17" x="759.5851" y="226.8287" width="55.59998" height="72.69998"/><text class="cls-18" transform="translate(759.57338 263.17871) scale(0.9371 1)">17</text><rect class="cls-17" x="926.68508" y="424.62872" width="65.59998" height="67"/><text class="cls-18" transform="translate(926.6642 455.4541) scale(0.9371 1)">16</text><text class="cls-18" transform="translate(406.9728 171.52979) scale(0.9371 1)">11B</text></g><line class="cls-19" x1="322.5851" y1="127.72871" x2="469.88509" y2="239.52872"/><path class="cls-17" d="M654.6,365.7l-129.1,2A23.47277,23.47277,0,0,1,502,344.2V264.4a23.47277,23.47277,0,0,1,23.5-23.5H645.3a23.47277,23.47277,0,0,1,23.5,23.5l9.3,77.8A23.47277,23.47277,0,0,1,654.6,365.7Z" transform="translate(-106.9149 -100.07129)"/><polygon class="cls-17" points="415.285 204.129 566.185 204.129 575.485 368.129 415.285 370.129 415.285 204.129"/><rect class="cls-17" x="282.88509" y="615.32874" width="670.09991" height="72.70001"/><text class="cls-18" transform="translate(342.0851 646.13574) scale(0.9371 1)">[ 11A, 11B, 12A, 12B, 14B, 16 ]</text></svg>