<svg id="Layer_1" data-name="Layer 1" xmlns="http://www.w3.org/2000/svg" viewBox="0 0 1228.10337 665.60005"><defs><style>.cls-1,.cls-3{fill:#fff;}.cls-1,.cls-10,.cls-11,.cls-13,.cls-14,.cls-15,.cls-16,.cls-17,.cls-18,.cls-19,.cls-2,.cls-3,.cls-9{stroke:#000;}.cls-1,.cls-10,.cls-11,.cls-12,.cls-13,.cls-14,.cls-15,.cls-16,.cls-17,.cls-18,.cls-19,.cls-2,.cls-3,.cls-4,.cls-5,.cls-6,.cls-7,.cls-8,.cls-9{stroke-miterlimit:10;}.cls-1{stroke-width:13.2067px;}.cls-2{stroke-width:3.7733px;}.cls-3{stroke-width:12.8799px;}.cls-4{stroke:#020000;stroke-width:3.7951px;}.cls-10,.cls-11,.cls-12,.cls-13,.cls-14,.cls-15,.cls-16,.cls-17,.cls-18,.cls-19,.cls-20,.cls-5,.cls-6,.cls-7,.cls-8,.cls-9{fill:none;}.cls-12,.cls-5,.cls-6{stroke:#262222;}.cls-5{stroke-width:8.3886px;}.cls-5,.cls-6,.cls-7,.cls-8{opacity:0.7;}.cls-21,.cls-5,.cls-6,.cls-7,.cls-8{isolation:isolate;}.cls-6,.cls-7,.cls-8{stroke-width:10px;}.cls-7{stroke:#393434;}.cls-8{stroke:#131111;}.cls-12,.cls-9{stroke-width:28.5061px;}.cls-10{stroke-width:27.5559px;}.cls-11{stroke-width:28px;}.cls-13{stroke-width:28.5297px;}.cls-14{stroke-width:29.2288px;}.cls-15{stroke-width:31.1831px;}.cls-16{stroke-width:26.8741px;}.cls-17{stroke-width:28.0366px;}.cls-18{stroke-width:27.36px;}.cls-19{stroke-width:25.1402px;}.cls-21{font-size:58.8941px;font-family:FCHomeRegular, FC Home;}</style></defs><title>โหนดที่3</title><g id="โหนด"><ellipse class="cls-1" cx="232.40336" cy="473.09999" rx="49.20001" ry="51.70001"/><path class="cls-2" d="M287.1,592c0,10.2,4.1,15.4,11.9,15.4a15.04155,15.04155,0,0,0,8.6-3.1,4.2065,4.2065,0,0,1,5.6,1.4c1.2,1.8.4,3.4-1.2,4.4a22.83358,22.83358,0,0,1-13.1,4.1c-13.3,0-20.1-8.8-20.1-22.3,0-12.7,6.1-22.3,20.1-22.3a22.12058,22.12058,0,0,1,13.1,4.1c1.7,1.4,2,2.8.8,4.9-.8,1.8-4,1.5-5.5.6a13.589,13.589,0,0,0-8.4-2.9C291.3,576.6,287.1,581.9,287.1,592Z" transform="translate(-65.29665 -118.2)"/><ellipse class="cls-1" cx="390.50334" cy="276.00002" rx="49.20001" ry="51.70001"/><path class="cls-2" d="M476.4,394.2c0,14.3-6.8,21.7-20.4,21.7H444.8a3.41722,3.41722,0,0,1-3.3-3.4V376a3.28926,3.28926,0,0,1,3.3-3.4h11.1C469.4,372.4,476.4,379.6,476.4,394.2Zm-8,0c0-10.2-3.7-15-12.4-15h-6.6v30h6.5C464.4,409.1,468.4,404.3,468.4,394.2Z" transform="translate(-65.29665 -118.2)"/><ellipse class="cls-1" cx="574.70335" cy="70.40001" rx="49.20001" ry="51.7"/><path class="cls-2" d="M633.3,176.3v11.5h14.4a3.10373,3.10373,0,0,1,3.4,3.3,3.23907,3.23907,0,0,1-3,3.4h-14.8v12.2h18a3.21244,3.21244,0,0,1,3.5,3.4,3.3192,3.3192,0,0,1-3.1,3.4H628.6c-2.5,0-3.4-1.5-3.4-3.9V173.7c0-2.4.7-3.9,3.4-3.9h22.5c1.8,0,3.7,1,3.7,3.4a3.35144,3.35144,0,0,1-3.3,3.4h-.1Z" transform="translate(-65.29665 -118.2)"/><ellipse class="cls-1" cx="552.30332" cy="473.8" rx="49.20001" ry="51.70001"/><path class="cls-2" d="M636.8,573.5a3.23911,3.23911,0,0,1-3,3.4H615.4v11.5h14.4a3.35038,3.35038,0,1,1,0,6.7H615.4V611c0,1.8-1.8,3.4-4,3.4s-4-1.7-4-3.4V573.7a3.43389,3.43389,0,0,1,3.4-3.4h22.7A3.23744,3.23744,0,0,1,636.8,573.5Z" transform="translate(-65.29665 -118.2)"/><ellipse class="cls-1" cx="733.70335" cy="276.09999" rx="49.20001" ry="51.70001"/><path class="cls-2" d="M818.3,395.6c.5,12.6-4.7,20.8-18.7,21-12.7,0-19.8-9.3-19.8-22.3,0-13.2,6.9-22.3,20.9-22.3,5.2,0,17.7,3.4,14.6,8.7a3.56666,3.56666,0,0,1-3.9,1.6c-4-1.5-7.3-3.3-10.8-3.3-8.4,0-12.7,5.1-12.7,15.2,0,8.4,3.7,15.2,11.9,15.2,7.8,0,10.9-3.8,11.2-11.7h-7.4c-2.3,0-3.1-1.7-3.1-3.5,0-1.9.8-3.5,3.1-3.5h10.5C817.1,390.7,818.2,393.4,818.3,395.6Z" transform="translate(-65.29665 -118.2)"/><ellipse class="cls-1" cx="936.60336" cy="73.3" rx="49.19997" ry="51.7"/><path class="cls-2" d="M1021.5,172.6v37.6c0,1.8-1.8,3.4-4,3.4s-4-1.7-4-3.4V194.3H994.2v15.9c0,1.8-1.7,3.4-4.1,3.4-2.1,0-4-1.7-4-3.4V172.6c0-1.8,1.9-3.4,4-3.4,2.4,0,4.1,1.6,4.1,3.4v15.2h19.1V172.6c0-1.8,1.8-3.4,4-3.4S1021.5,170.9,1021.5,172.6Z" transform="translate(-65.29665 -118.2)"/><ellipse class="cls-1" cx="936.60336" cy="461.09999" rx="49.19997" ry="51.70001"/><path class="cls-2" d="M1006,560.4V598c0,1.8-1.6,3.4-4,3.4-2.2,0-4.1-1.7-4.1-3.4V560.4c0-1.8,1.9-3.4,4.1-3.4C1004.3,557.1,1006,558.7,1006,560.4Z" transform="translate(-65.29665 -118.2)"/><ellipse class="cls-3" cx="1113.80332" cy="276.09999" rx="49.59998" ry="48.79999"/><path class="cls-4" d="M1185.80005,373.6v29.3c0,9.2-3.6,15.3-12.69995,15.3-3.80005,0-11.30005-1.3-10-5.5.4-1.5,2-2.2,3.9-2,.30005.1.80005.2,1.2.3,5,.7,8.9,1.2,8.9-7.3V373.6c0-1.7,2.1-3.1,4.3-3.1C1184.6,370.4,1185.80005,372.2,1185.80005,373.6Z" transform="translate(-65.29665 -118.2)"/><g id="Layer_3" data-name="Layer 3"><ellipse class="cls-1" cx="54.00335" cy="273.00002" rx="47.40001" ry="48.60001"/><path class="cls-2" d="M114,394.9c-.3.8-.6,1.5-.8,2.1a7.31277,7.31277,0,0,0-.7,1.9,10.66325,10.66325,0,0,0-.7,1.9,11.25607,11.25607,0,0,0-.8,2.2c-.2.6-.7.9-1.4,1.3a4.68066,4.68066,0,0,1-2.7.2,4.23516,4.23516,0,0,1-1.2-.4,4.72764,4.72764,0,0,1-1.2-.7,1.84868,1.84868,0,0,1-.7-.9,1.51467,1.51467,0,0,1,.1-1.3c.1-.2.2-.7.5-1.3.3-.8.6-1.5.9-2.3s.6-1.7.8-2.4a8.8837,8.8837,0,0,1,.6-1.5c1-2.7,1.8-5,2.7-7.2.8-2.2,1.6-4.2,2.4-6.4.9-2.2,1.7-4.2,2.8-6.5s2.2-4.7,3.6-7.5a2.759,2.759,0,0,1,1.2-1.2,3.37863,3.37863,0,0,1,2-.6,3.60581,3.60581,0,0,1,2,.6c.6.4,1.1.8,1.2,1.2,1.4,2.7,2.6,5.1,3.6,7.5,1,2.3,1.9,4.3,2.8,6.5s1.7,4.1,2.4,6.4c.8,2.3,1.7,4.5,2.7,7.2.1.2.2.8.5,1.5q.45,1.2.9,2.4c.3.8.6,1.6.8,2.3.3.8.4,1.2.6,1.3a1.51471,1.51471,0,0,1,.1,1.3c-.2.4-.4.8-.7.9a4.72876,4.72876,0,0,1-1.2.7,8.39713,8.39713,0,0,1-1.2.4,4.03518,4.03518,0,0,1-2.7-.2,2.57164,2.57164,0,0,1-1.4-1.3c-.6-1.6-1.1-2.8-1.5-3.8-.5-1.1-1-2.4-1.5-3.7H114Zm7.2-20.5q-.9,2.1-1.5,3.6c-.4,1.2-.9,2.4-1.3,3.5a29.10808,29.10808,0,0,0-1.2,3.5c-.4,1.2-.8,2.5-1.2,3.7h10.8c-.9-2.7-1.7-5.1-2.5-7.3C123.3,379.5,122.3,377.1,121.2,374.4Z" transform="translate(-65.29665 -118.2)"/></g><g id="Layer_4" data-name="Layer 4"><ellipse class="cls-1" cx="231.80336" cy="67.90001" rx="48.20001" ry="52.10001"/><path class="cls-2" d="M315.1,195.5c0,8-4.3,12.4-13.1,12.4H286.6c-2.5,0-3.4-3.1-3.4-5.8V167.3a3.59581,3.59581,0,0,1,3.4-3.5h14c7.5,0,12.1,4.8,12.1,12.2a10.46078,10.46078,0,0,1-5.2,9.2A10.92966,10.92966,0,0,1,315.1,195.5Zm-15.7-25h-8.3v11.8h8.3c3.4,0,5.3-2.5,5.3-5.9C304.7,172.9,302.9,170.5,299.4,170.5Zm7.8,24.3c0-3.5-2.9-6.2-6.9-6.2h-9.2V201h10.1C304.4,201,307.2,199,307.2,194.8Z" transform="translate(-65.29665 -118.2)"/></g></g><g id="เส้นเล็ก"><line class="cls-5" x1="99.20335" y1="269.8" x2="341.30335" y2="270.3"/><line class="cls-6" x1="617.10337" y1="64" x2="889.00334" y2="64.10001"/><line class="cls-6" x1="439.70335" y1="274.90001" x2="684.50334" y2="271.09999"/><line class="cls-6" x1="277.00334" y1="483.3" x2="503.10337" y2="483.09999"/><line class="cls-7" x1="84.70335" y1="229.90001" x2="202.00334" y2="112.3"/><line class="cls-6" x1="73.80335" y1="310.2" x2="179.00335" y2="461.09999"/><line class="cls-6" x1="270.00334" y1="440.09999" x2="369.40336" y2="326.2"/><line class="cls-8" x1="433.50334" y1="240.3" x2="552.80332" y2="113.90001"/><line class="cls-6" x1="977.70335" y1="101.8" x2="1105.30332" y2="227.3"/><line class="cls-6" x1="985.80332" y1="440.09999" x2="1100.4033" y2="326.2"/><line class="cls-6" x1="782.90336" y1="273.09999" x2="1059.30332" y2="275.40001"/><line class="cls-6" x1="602.40336" y1="114" x2="715.10337" y2="227.3"/><line class="cls-6" x1="777.40336" y1="300.00002" x2="903.40336" y2="421.3"/><line class="cls-6" x1="261.00334" y1="108.10001" x2="369.40336" y2="225.59999"/><line class="cls-6" x1="423.80335" y1="309.09999" x2="535.10337" y2="423.8"/><line class="cls-6" x1="708.30332" y1="326.2" x2="592.20335" y2="438.89998"/><line class="cls-6" x1="901.80332" y1="115.60001" x2="769.20335" y2="240.3"/><line class="cls-6" x1="604.50334" y1="473.89998" x2="887.40336" y2="474.00002"/></g><g id="เส้นใหญ่"><path class="cls-9" d="M415.9,181.1" transform="translate(-65.29665 -118.2)"/><path class="cls-9" d="M151.1,183.3" transform="translate(-65.29665 -118.2)"/><line class="cls-10" x1="281.60334" y1="482.09999" x2="503.10337" y2="480.3"/><line class="cls-11" x1="427.60334" y1="249.00002" x2="547.50334" y2="113.5"/><path class="cls-9" d="M793.4,622.3" transform="translate(-65.29665 -118.2)"/><path class="cls-9" d="M521.5,623.6" transform="translate(-65.29665 -118.2)"/><path class="cls-9" d="M1126.4,390.2" transform="translate(-65.29665 -118.2)"/><path class="cls-9" d="M896,387.2" transform="translate(-65.29665 -118.2)"/><path class="cls-9" d="M98.7,566.9" transform="translate(-65.29665 -118.2)"/><path class="cls-9" d="M98.7,450.6" transform="translate(-65.29665 -118.2)"/><path class="cls-12" d="M846.7,326.4" transform="translate(-65.29665 -118.2)"/><path class="cls-12" d="M847.7,232.6" transform="translate(-65.29665 -118.2)"/><path class="cls-9" d="M98.4,244.5" transform="translate(-65.29665 -118.2)"/><path class="cls-9" d="M98.7,337.7" transform="translate(-65.29665 -118.2)"/><path class="cls-9" d="M472.3,560.8" transform="translate(-65.29665 -118.2)"/><path class="cls-9" d="M472.3,444.5" transform="translate(-65.29665 -118.2)"/><line class="cls-13" x1="78.30335" y1="233.8" x2="203.30335" y2="108.10001"/><line class="cls-14" x1="187.50335" y1="454.89998" x2="73.80335" y2="310.2"/><line class="cls-15" x1="604.50334" y1="474.00002" x2="888.10337" y2="472.20003"/><line class="cls-16" x1="982.4033" y1="444.70003" x2="1103.10337" y2="322.40001"/><line class="cls-17" x1="775.20335" y1="242.40001" x2="901.80332" y2="115.60001"/><line class="cls-18" x1="903.40336" y1="421.3" x2="777.40336" y2="300.00002"/><line class="cls-19" x1="536.00334" y1="424.89998" x2="424.30335" y2="309.40001"/></g><g id="เลข"><polygon class="cls-20" points="270.703 3.3 356.503 0 296.803 49.7 194.503 49.7 270.703 3.3"/><text class="cls-21" transform="translate(328.06809 164.58174) scale(0.9371 1)">6</text><rect class="cls-20" x="620.40336" y="13.3" width="93.5" height="45.2"/><text class="cls-21" transform="translate(715.1389 529.80098) scale(0.9371 1)">3B</text><rect class="cls-20" x="207.70335" y="217.50002" width="114.10001" height="55.70001"/><text class="cls-21" transform="translate(207.74534 253.82588) scale(0.9371 1)">11</text><rect class="cls-20" x="621.80332" y="218.50002" width="116.09998" height="68.20001"/><text class="cls-21" transform="translate(556.78636 256.1916) scale(0.9371 1)">16</text><polygon class="cls-20" points="192.503 450.8 335.303 447.4 335.303 555.5 192.503 558.8 192.503 450.8"/><text class="cls-21" transform="translate(328.06809 421.31367) scale(0.9371 1)">9</text><rect class="cls-20" x="632.20335" y="448.09999" width="108.20001" height="68.20001"/><text class="cls-21" transform="translate(672.06077 164.58174) scale(0.9371 1)">10</text><rect class="cls-20" x="53.50335" y="159.40001" width="141.7" height="80.80002"/><text class="cls-21" transform="translate(78.30296 149.4001) scale(0.9371 1)">3A</text><rect class="cls-20" x="51.10335" y="373.40001" width="96.4" height="68.19998"/><text class="cls-21" transform="translate(85.80345 424.93672) scale(0.9371 1)">4</text><rect class="cls-20" x="199.40336" y="117.8" width="115.10001" height="94.39999"/><rect class="cls-20" x="213.60334" y="340.3" width="94.5" height="85"/><polygon class="cls-20" points="428.103 147 501.003 150.3 501.003 188.1 428.103 184.7 428.103 147"/><text class="cls-21" transform="translate(448.00315 159.8) scale(0.9371 1)">5</text><polygon class="cls-20" points="416.803 360.3 479.203 363.6 479.203 437.1 416.803 433.8 416.803 360.3"/><text class="cls-21" transform="translate(439.70335 421.31367) scale(0.9371 1)">2</text><rect class="cls-20" x="615.50334" y="109.60001" width="70.79999" height="76.3"/><text class="cls-21" transform="translate(932.59983 260.97725) scale(0.9371 1)">17</text><rect class="cls-20" x="629.90336" y="327.59999" width="128.5" height="72"/><text class="cls-21" transform="translate(667.15354 409.31758) scale(0.9371 1)">19</text><rect class="cls-20" x="730.20335" y="149.40001" width="105.59998" height="102.19998"/><text class="cls-21" transform="translate(790.46409 159.8) scale(0.9371 1)">12</text><rect class="cls-20" x="728.10337" y="365.00002" width="47.79999" height="60.20001"/><text class="cls-21" transform="translate(384.10325 536.61739) scale(0.9371 1)">1</text><rect class="cls-20" x="929.40336" y="92.8" width="98.39996" height="67"/><text class="cls-21" transform="translate(737.90257 45.56563) scale(0.9371 1)">18</text><rect class="cls-20" x="925.40336" y="216.3" width="55.60004" height="72.70001"/><text class="cls-21" transform="translate(1051.6135 149.4001) scale(0.9371 1)">14</text><rect class="cls-20" x="920.40336" y="364.3" width="65.60004" height="67"/><text class="cls-21" transform="translate(1059.30784 422.09981) scale(0.9371 1)">8</text><text class="cls-21" transform="translate(799.01878 407.49922) scale(0.9371 1)">7</text></g><rect class="cls-20" x="411.10334" y="587.20003" width="817.00003" height="78.40002"/><text class="cls-21" transform="translate(411.10325 618.02754) scale(0.9371 1)">[ 1, 2, 3A, 3B, 4, 5, 7, 8, 12 ]</text></svg>