<svg id="Layer_1" data-name="Layer 1" xmlns="http://www.w3.org/2000/svg" viewBox="0 0 679.91893 390.80285"><defs><style>.cls-1,.cls-2,.cls-6{fill:#fff;}.cls-1,.cls-2,.cls-3,.cls-4,.cls-5,.cls-6,.cls-7{stroke:#000;}.cls-1,.cls-10,.cls-11,.cls-12,.cls-13,.cls-2,.cls-3,.cls-4,.cls-5,.cls-6,.cls-7,.cls-9{stroke-miterlimit:10;}.cls-1{stroke-width:13.5006px;}.cls-2{stroke-width:13.2346px;}.cls-3{stroke-width:3.7813px;}.cls-4{stroke-width:3.8573px;}.cls-5{stroke-width:3.7535px;}.cls-6{stroke-width:13.1373px;}.cls-7{stroke-width:4px;}.cls-10,.cls-11,.cls-12,.cls-8,.cls-9{isolation:isolate;}.cls-8{font-size:60px;font-family:FCHomeRegular, FC Home;}.cls-10,.cls-11,.cls-12,.cls-13,.cls-9{fill:none;}.cls-10,.cls-9{stroke:#262222;}.cls-12,.cls-9{stroke-width:10px;}.cls-10,.cls-11,.cls-12,.cls-9{opacity:0.7;}.cls-10,.cls-11{stroke-width:14px;}.cls-11,.cls-13{stroke:#131111;}.cls-12{stroke:#393434;}.cls-13{stroke-width:18.2574px;}</style></defs><title>node_10</title><g id="โหนด"><ellipse class="cls-1" cx="56.35031" cy="82.85254" rx="49.60001" ry="53.60001"/><ellipse class="cls-1" cx="345.35034" cy="82.85254" rx="49.59998" ry="53.60001"/><path class="cls-2" d="M100.3,525.3" transform="translate(-318.04969 -158.14746)"/><path class="cls-2" d="M61.8,629.6" transform="translate(-318.04969 -158.14746)"/><path class="cls-3" d="M46.4,600.3" transform="translate(-318.04969 -158.14746)"/><path class="cls-3" d="M73.5,600.3" transform="translate(-318.04969 -158.14746)"/><g id="Layer_3" data-name="Layer 3"><ellipse class="cls-1" cx="340.95031" cy="333.75254" rx="47.79999" ry="50.30001"/><path class="cls-4" d="M651.4,501.5c-.3.8-.6,1.5-.8,2.1a7.315,7.315,0,0,0-.7,1.9,10.66549,10.66549,0,0,0-.7,1.9,11.25813,11.25813,0,0,0-.8,2.2c-.2.6-.7.9-1.4,1.3a4.68067,4.68067,0,0,1-2.7.2,4.23545,4.23545,0,0,1-1.2-.4,4.7282,4.7282,0,0,1-1.2-.7c-.4-.3-.7-.6-.7-.9a1.5148,1.5148,0,0,1,.1-1.3c.1-.2.2-.7.5-1.3.3-.8.6-1.5.9-2.3a13.4918,13.4918,0,0,0,.8-2.4,8.88614,8.88614,0,0,1,.6-1.5c1-2.7,1.9-5.2,2.7-7.4s1.6-4.4,2.4-6.6c.9-2.2,1.8-4.4,2.8-6.7s2.2-4.9,3.7-7.7c.2-.5.7-.8,1.2-1.2a3.281,3.281,0,0,1,2.1-.6,4.20032,4.20032,0,0,1,2.1.6q1.04994.6,1.2,1.2c1.4,2.8,2.6,5.3,3.7,7.7,1,2.3,2,4.5,2.8,6.7.9,2.2,1.7,4.3,2.4,6.6-4.6-12.5-2.1-5.9,2.7,7.4.1.2.2.8.5,1.5q.45,1.2.9,2.4a12.665,12.665,0,0,1,.8,2.3c.3.8.4,1.2.6,1.3a1.51459,1.51459,0,0,1,.1,1.3c-.2.4-.4.8-.7.9a4.72885,4.72885,0,0,1-1.2.7,8.39656,8.39656,0,0,1-1.2.4,3.97344,3.97344,0,0,1-2.7-.2,2.57169,2.57169,0,0,1-1.4-1.3c-.6-1.6-1.1-2.9-1.5-4a40.37779,40.37779,0,0,1-1.5-3.9H652v-.2Zm7.2-21.2c-.6,1.4-1.1,2.6-1.5,3.8s-.9,2.4-1.3,3.7a22.84908,22.84908,0,0,0-1.2,3.7q-.6,1.8-1.2,3.9h10.9c-.9-2.7-1.7-5.3-2.5-7.5C660.8,485.6,659.8,483.1,658.6,480.3Z" transform="translate(-318.04969 -158.14746)"/></g><g id="Layer_4" data-name="Layer 4"><path class="cls-5" d="M390.5,250.6c0,7.9-4.4,12.1-13.2,12.1H361.8c-2.5,0-3.5-3-3.5-5.7V222.8a3.68548,3.68548,0,0,1,3.5-3.5h14.1c7.5,0,12.3,4.7,12.3,11.9a10.33988,10.33988,0,0,1-5.2,9C387.1,241.8,390.5,246,390.5,250.6Zm-15.7-24.4h-8.3v11.6h8.3c3.5,0,5.3-2.4,5.3-5.8C380,228.6,378.2,226.2,374.8,226.2Zm7.8,23.8c0-3.5-3-6.1-6.9-6.1h-9.3v12.2h10.2A5.79476,5.79476,0,0,0,382.6,250Z" transform="translate(-318.04969 -158.14746)"/><ellipse class="cls-6" cx="624.7503" cy="85.35254" rx="48.59998" ry="51.10001"/><path class="cls-7" d="M653.3,240.8c0,10.5,4.5,15.9,12.9,15.9a16.61609,16.61609,0,0,0,9.4-3.2,4.816,4.816,0,0,1,6.1,1.4c1.3,1.8.4,3.5-1.3,4.6a25.50366,25.50366,0,0,1-14.2,4.3c-14.5,0-21.8-9.1-21.8-23,0-13.1,6.6-23,21.8-23a24.01466,24.01466,0,0,1,14.2,4.3c1.9,1.4,2.2,2.9.9,5.1-.9,1.8-4.4,1.5-6,.6a15.50192,15.50192,0,0,0-9.1-3C657.8,224.8,653.3,230.3,653.3,240.8Z" transform="translate(-318.04969 -158.14746)"/><path class="cls-4" d="M963.7,243.5c0,14.8-6.8,22.5-20.6,22.5h-11.3a3.48262,3.48262,0,0,1-3.4-3.6V224.7a3.48262,3.48262,0,0,1,3.4-3.6H943C956.6,220.9,963.7,228.4,963.7,243.5Zm-8.1,0c0-10.5-3.7-15.5-12.6-15.5h-6.6v31.1H943C951.5,259,955.6,254,955.6,243.5Z" transform="translate(-318.04969 -158.14746)"/></g></g><g id="เลข"><text class="cls-8" transform="translate(189.75332 44.54962)">4</text><text class="cls-8" transform="translate(360.21594 219.54083)">5B</text><text class="cls-8" transform="translate(467.81829 49.53986)">5A</text><text class="cls-8" transform="translate(90.50451 246.43765)">3</text></g><g id="เส้นเล็ก"><path class="cls-9" d="M918.7,418.9" transform="translate(-318.04969 -158.14746)"/><path class="cls-9" d="M1137.9,462.6" transform="translate(-318.04969 -158.14746)"/><path class="cls-9" d="M867.7,12.8" transform="translate(-318.04969 -158.14746)"/><path class="cls-9" d="M1133.30005,10.4" transform="translate(-318.04969 -158.14746)"/><line class="cls-10" x1="105.95031" y1="76.25253" x2="293.15032" y2="79.85254"/><line class="cls-10" x1="394.95031" y1="79.85254" x2="576.15032" y2="82.65254"/><line class="cls-11" x1="340.15032" y1="136.45255" x2="337.7503" y2="283.55255"/><path class="cls-11" d="M659.1,185.1" transform="translate(-318.04969 -158.14746)"/><path class="cls-11" d="M604.2,110.9" transform="translate(-318.04969 -158.14746)"/><path class="cls-12" d="M1161.2,308.5" transform="translate(-318.04969 -158.14746)"/><path class="cls-12" d="M1191.6,406.2" transform="translate(-318.04969 -158.14746)"/><path class="cls-12" d="M864.9,268.6" transform="translate(-318.04969 -158.14746)"/><path class="cls-12" d="M864.9,367.9" transform="translate(-318.04969 -158.14746)"/><path class="cls-9" d="M1191.4,75.1" transform="translate(-318.04969 -158.14746)"/><path class="cls-9" d="M1161.5,189.7" transform="translate(-318.04969 -158.14746)"/><path class="cls-9" d="M803.6,85.8" transform="translate(-318.04969 -158.14746)"/><path class="cls-9" d="M861.2,151.1" transform="translate(-318.04969 -158.14746)"/><path class="cls-9" d="M494.7,269.1" transform="translate(-318.04969 -158.14746)"/><path class="cls-9" d="M494.7,365.8" transform="translate(-318.04969 -158.14746)"/><path class="cls-12" d="M439.1,84.9" transform="translate(-318.04969 -158.14746)"/><path class="cls-12" d="M496.7,154.9" transform="translate(-318.04969 -158.14746)"/><line class="cls-10" x1="299.15032" y1="309.35254" x2="80.35031" y2="129.75253"/><path class="cls-10" d="M698.3,463.3" transform="translate(-318.04969 -158.14746)"/><path class="cls-10" d="M903.6,282.5" transform="translate(-318.04969 -158.14746)"/></g><line class="cls-13" x1="546.15032" y1="165.25253" x2="546.15032" y2="165.25253"/></svg>