<svg id="Layer_1" data-name="Layer 1" xmlns="http://www.w3.org/2000/svg" viewBox="0 0 1062.07015 677.75818"><defs><style>.cls-1,.cls-3{fill:#fff;}.cls-1,.cls-2,.cls-3,.cls-4{stroke:#000;}.cls-1,.cls-2,.cls-3,.cls-4,.cls-5,.cls-6,.cls-7,.cls-8,.cls-9{stroke-miterlimit:10;}.cls-1{stroke-width:13.5702px;}.cls-2{stroke-width:3.8772px;}.cls-3{stroke-width:13.3029px;}.cls-4{stroke-width:3.8008px;}.cls-10,.cls-5,.cls-6,.cls-7,.cls-8,.cls-9{fill:none;}.cls-5,.cls-9{stroke:#262222;}.cls-5,.cls-7,.cls-8{stroke-width:9.693px;}.cls-5,.cls-6,.cls-7,.cls-8,.cls-9{opacity:0.7;}.cls-11,.cls-5,.cls-6,.cls-7,.cls-8,.cls-9{isolation:isolate;}.cls-6,.cls-8{stroke:#393434;}.cls-6{stroke-width:10.1156px;}.cls-7{stroke:#131111;}.cls-9{stroke-width:9.6909px;}.cls-11{font-size:58.8941px;font-family:FCHomeRegular, FC Home;}</style></defs><title>node_4</title><g id="โหนด"><ellipse class="cls-1" cx="282.88509" cy="500.75818" rx="50.10001" ry="53.59998"/><path class="cls-2" d="M379.1,611.9c0,10.5,4.2,15.9,12.1,15.9a15.05431,15.05431,0,0,0,8.8-3.2,4.30544,4.30544,0,0,1,5.7,1.4c1.2,1.8.4,3.5-1.2,4.6a22.6953,22.6953,0,0,1-13.3,4.3c-13.6,0-20.4-9.1-20.4-23.1,0-13.1,6.2-23.1,20.4-23.1a21.38531,21.38531,0,0,1,13.3,4.3c1.8,1.4,2.1,2.9.8,5.1-.8,1.8-4.1,1.5-5.6.6a13.97317,13.97317,0,0,0-8.5-3C383.3,595.8,379.1,601.3,379.1,611.9Z" transform="translate(-106.9149 -110.3418)"/><ellipse class="cls-1" cx="496.98513" cy="275.25821" rx="50.09998" ry="53.60001"/><path class="cls-2" d="M626.3,385.7c0,14.8-6.9,22.5-20.8,22.5H594.1a3.48261,3.48261,0,0,1-3.4-3.6V366.9a3.48261,3.48261,0,0,1,3.4-3.6h11.3C619.1,363.1,626.3,370.6,626.3,385.7Zm-8.2,0c0-10.5-3.7-15.5-12.7-15.5h-6.7v31.1h6.7C614,401.2,618.1,396.2,618.1,385.7Z" transform="translate(-106.9149 -110.3418)"/><ellipse class="cls-1" cx="772.28512" cy="87.0582" rx="50.09998" ry="53.60001"/><path class="cls-2" d="M872.4,184.7v11.9h14.7a3.20417,3.20417,0,0,1,3.5,3.4,3.34289,3.34289,0,0,1-3.1,3.5h-15.1v12.6h18.4a3.26858,3.26858,0,0,1,3.6,3.5,3.42409,3.42409,0,0,1-3.2,3.5h-23.5c-2.5,0-3.5-1.5-3.5-4.1V181.8c0-2.4.7-4.1,3.5-4.1h23c1.9,0,3.7,1,3.7,3.5a3.45772,3.45772,0,0,1-3.4,3.5h-.1Z" transform="translate(-106.9149 -110.3418)"/><ellipse class="cls-1" cx="772.28512" cy="501.55823" rx="50.09998" ry="53.59998"/><path class="cls-2" d="M898.8,592.6a3.34286,3.34286,0,0,1-3.1,3.5H877V608h14.7a3.45037,3.45037,0,1,1,0,6.9H877v16.4c0,1.8-1.9,3.5-4.1,3.5s-4.1-1.7-4.1-3.5v-38.6a3.63173,3.63173,0,0,1,3.5-3.6h23.1a3.26265,3.26265,0,0,1,3.4,3.2Z" transform="translate(-106.9149 -110.3418)"/><ellipse class="cls-1" cx="1005.18508" cy="275.95819" rx="50.09998" ry="53.60001"/><path class="cls-2" d="M1132,388.8c.5,13-4.80005,21.6-19,21.8-12.9,0-20.19995-9.6-20.19995-23.1,0-13.7,7-23.1,21.30005-23.1,5.19995,0,18,3.6,14.9,9a3.56668,3.56668,0,0,1-3.9,1.6c-4.1-1.5-7.4-3.4-11-3.4-8.5,0-12.9,5.3-12.9,15.7,0,8.7,3.69995,15.7,12.1,15.7,8,0,11.19995-4,11.4-12.1h-7.5c-2.30005,0-3.2-1.7-3.2-3.7,0-1.9.80005-3.7,3.2-3.7H1127.9C1130.80005,383.7,1131.9,386.5,1132,388.8Z" transform="translate(-106.9149 -110.3418)"/><path class="cls-3" d="M1162.2,111" transform="translate(-106.9149 -110.3418)"/><path class="cls-3" d="M1201.1,6.7" transform="translate(-106.9149 -110.3418)"/><path class="cls-4" d="M1216.6,36" transform="translate(-106.9149 -110.3418)"/><path class="cls-4" d="M1189.30005,36" transform="translate(-106.9149 -110.3418)"/><g id="Layer_3" data-name="Layer 3"><ellipse class="cls-1" cx="55.0851" cy="287.85822" rx="48.3" ry="50.29999"/><path class="cls-2" d="M154.7,405.4c-.3.8-.6,1.5-.8,2.1a7.31273,7.31273,0,0,0-.7,1.9,10.66248,10.66248,0,0,0-.7,1.9,11.25543,11.25543,0,0,0-.8,2.2c-.2.6-.7.9-1.4,1.3a4.68063,4.68063,0,0,1-2.7.2,4.23505,4.23505,0,0,1-1.2-.4,4.72787,4.72787,0,0,1-1.2-.7c-.4-.3-.7-.6-.7-.9a1.51464,1.51464,0,0,1,.1-1.3c.1-.2.2-.7.5-1.3.3-.8.6-1.5.9-2.3a13.49359,13.49359,0,0,0,.8-2.4,8.88106,8.88106,0,0,1,.6-1.5c1-2.7,1.9-5.2,2.7-7.4s1.6-4.4,2.4-6.6c.9-2.2,1.8-4.4,2.8-6.7s2.2-4.9,3.7-7.7c.2-.5.7-.8,1.2-1.2a3.28093,3.28093,0,0,1,2.1-.6,4.20054,4.20054,0,0,1,2.1.6q1.05.6,1.2,1.2c1.4,2.8,2.6,5.3,3.7,7.7,1,2.3,2,4.5,2.8,6.7.9,2.2,1.7,4.3,2.4,6.6.8,2.3,1.7,4.7,2.7,7.4.1.2.2.8.5,1.5q.45,1.2.9,2.4a12.66628,12.66628,0,0,1,.8,2.3c.3.8.4,1.2.6,1.3a1.51471,1.51471,0,0,1,.1,1.3c-.2.4-.4.8-.7.9a4.72852,4.72852,0,0,1-1.2.7,8.39754,8.39754,0,0,1-1.2.4,3.97345,3.97345,0,0,1-2.7-.2,2.57165,2.57165,0,0,1-1.4-1.3c-.6-1.6-1.1-2.9-1.5-4a40.37752,40.37752,0,0,1-1.5-3.9H155.1v-.2Zm7.3-21.2c-.6,1.4-1.1,2.6-1.5,3.8s-.9,2.4-1.3,3.7a22.85133,22.85133,0,0,0-1.2,3.7q-.6,1.8-1.2,3.9h11c-.9-2.7-1.7-5.3-2.5-7.5C164.2,389.5,163.2,387,162,384.2Z" transform="translate(-106.9149 -110.3418)"/></g><g id="Layer_4" data-name="Layer 4"><ellipse class="cls-1" cx="288.9851" cy="78.0582" rx="49.10001" ry="54"/><path class="cls-2" d="M414.2,198c0,8.3-4.4,12.8-13.3,12.8H385.2c-2.5,0-3.5-3.2-3.5-6V168.7a3.79759,3.79759,0,0,1,3.5-3.7h14.2c7.6,0,12.4,5,12.4,12.6a10.922,10.922,0,0,1-5.3,9.5A12.127,12.127,0,0,1,414.2,198Zm-15.9-25.8h-8.4v12.2h8.4c3.5,0,5.4-2.5,5.4-6.1C403.6,174.7,401.7,172.2,398.3,172.2Zm7.9,25.1c0-3.7-3-6.4-7-6.4h-9.4v12.9h10.3C403.3,203.8,406.2,201.6,406.2,197.3Z" transform="translate(-106.9149 -110.3418)"/></g></g><g id="เส้นเล็ก"><path class="cls-5" d="M382.4,171.1" transform="translate(-106.9149 -110.3418)"/><path class="cls-5" d="M113.9,173.7" transform="translate(-106.9149 -110.3418)"/><line class="cls-5" x1="103.38511" y1="277.1582" x2="446.18508" y2="275.1582"/><path class="cls-5" d="M386.9,623.5" transform="translate(-106.9149 -110.3418)"/><path class="cls-5" d="M118.5,625.9" transform="translate(-106.9149 -110.3418)"/><line class="cls-5" x1="342.0851" y1="67.95821" x2="722.18508" y2="67.95821"/><line class="cls-5" x1="535.0851" y1="310.0582" x2="737.5851" y2="462.85822"/><line class="cls-5" x1="338.0851" y1="505.6582" x2="718.98513" y2="505.6582"/><line class="cls-6" x1="67.4851" y1="237.5582" x2="244.38509" y2="100.5582"/><line class="cls-5" x1="84.88511" y1="327.45819" x2="232.78512" y2="474.55823"/><line class="cls-5" x1="318.4851" y1="462.85822" x2="465.0851" y2="321.5582"/><line class="cls-7" x1="544.68508" y1="247.35822" x2="723.78512" y2="100.5582"/><path class="cls-8" d="M90.3,327.8" transform="translate(-106.9149 -110.3418)"/><path class="cls-8" d="M59.6,230.1" transform="translate(-106.9149 -110.3418)"/><path class="cls-8" d="M436.8,321.4" transform="translate(-106.9149 -110.3418)"/><path class="cls-8" d="M436.8,222.1" transform="translate(-106.9149 -110.3418)"/><path class="cls-5" d="M59.8,561.2" transform="translate(-106.9149 -110.3418)"/><path class="cls-5" d="M90,446.6" transform="translate(-106.9149 -110.3418)"/><path class="cls-5" d="M440.5,553" transform="translate(-106.9149 -110.3418)"/><path class="cls-5" d="M440.5,438.9" transform="translate(-106.9149 -110.3418)"/><path class="cls-5" d="M821.9,318.4" transform="translate(-106.9149 -110.3418)"/><path class="cls-5" d="M821.9,221.7" transform="translate(-106.9149 -110.3418)"/><path class="cls-8" d="M819.9,551.4" transform="translate(-106.9149 -110.3418)"/><path class="cls-8" d="M819.9,432.6" transform="translate(-106.9149 -110.3418)"/><line class="cls-9" x1="818.68508" y1="110.95821" x2="979.78505" y2="222.35822"/><line class="cls-9" x1="824.28512" y1="496.1582" x2="1005.18508" y2="329.5582"/><line class="cls-5" x1="547.0851" y1="275.25821" x2="954.98513" y2="275.95819"/></g><g id="เลข"><polygon class="cls-10" points="229.085 11.158 314.885 7.858 255.185 57.558 152.885 57.558 229.085 11.158"/><rect class="cls-10" x="578.78512" y="21.1582" width="93.5" height="45.2"/><text class="cls-11" transform="translate(511.23012 43.72852) scale(0.9371 1)">10</text><rect class="cls-10" x="166.0851" y="225.35822" width="114.10001" height="55.70001"/><rect class="cls-10" x="580.18508" y="226.35822" width="116.09998" height="68.20001"/><polygon class="cls-10" points="150.885 458.658 293.685 455.258 293.685 563.358 150.885 566.658 150.885 458.658"/><text class="cls-11" transform="translate(105.87124 439.19141) scale(0.9371 1)">15</text><rect class="cls-10" x="590.5851" y="455.95819" width="108.20001" height="68.20001"/><text class="cls-11" transform="translate(342.05581 381.29004) scale(0.9371 1)">2</text><rect class="cls-10" x="11.88511" y="167.25821" width="141.7" height="80.80002"/><rect class="cls-10" x="9.4851" y="381.25821" width="96.4" height="68.19998"/><rect class="cls-10" x="157.78512" y="125.6582" width="115.10001" height="94.39999"/><text class="cls-11" transform="translate(105.87124 154.81738) scale(0.9371 1)">20</text><rect class="cls-10" x="171.9851" y="348.1582" width="94.5" height="85"/><polygon class="cls-10" points="386.485 154.858 459.385 158.158 459.385 195.958 386.485 192.558 386.485 154.858"/><text class="cls-11" transform="translate(258.11489 247.33545) scale(0.9371 1)">13</text><polygon class="cls-10" points="375.185 368.158 437.585 371.458 437.585 444.958 375.185 441.658 375.185 368.158"/><rect class="cls-10" x="573.88509" y="117.45821" width="70.79999" height="76.3"/><text class="cls-11" transform="translate(573.88784 181.33936) scale(0.9371 1)">5</text><rect class="cls-10" x="588.28512" y="335.45819" width="128.5" height="72"/><text class="cls-11" transform="translate(511.23012 485.63574) scale(0.9371 1)">6</text><rect class="cls-10" x="688.5851" y="157.25821" width="105.59998" height="102.19998"/><rect class="cls-10" x="686.48513" y="372.85822" width="47.79999" height="60.20001"/><text class="cls-11" transform="translate(663.24038 390.61523) scale(0.9371 1)">19</text><rect class="cls-10" x="890.18508" y="121.3582" width="98.40002" height="67.00002"/><text class="cls-11" transform="translate(890.23354 152.11426) scale(0.9371 1)">17</text><rect class="cls-10" x="759.5851" y="216.5582" width="55.59998" height="72.69998"/><text class="cls-11" transform="translate(759.57338 247.34424) scale(0.9371 1)">4</text><rect class="cls-10" x="926.68508" y="414.35822" width="65.59998" height="67"/><text class="cls-11" transform="translate(926.6642 445.18359) scale(0.9371 1)">3</text></g><rect class="cls-10" x="347.0851" y="603.6582" width="682.90002" height="74.09998"/></svg>