<svg id="Layer_1" data-name="Layer 1" xmlns="http://www.w3.org/2000/svg" viewBox="0 0 1131.23291 720.6001"><defs><style>.cls-1,.cls-2,.cls-3,.cls-4,.cls-9{fill:none;}.cls-1{stroke:#262222;}.cls-1,.cls-2,.cls-3,.cls-4,.cls-5,.cls-6,.cls-7,.cls-8{stroke-miterlimit:10;}.cls-1,.cls-4{stroke-width:18px;}.cls-1,.cls-2,.cls-3,.cls-4{opacity:0.7;}.cls-1,.cls-10,.cls-2,.cls-3,.cls-4{isolation:isolate;}.cls-2,.cls-4{stroke:#393434;}.cls-2,.cls-3{stroke-width:16px;}.cls-3{stroke:#131111;}.cls-5,.cls-7{fill:#fff;}.cls-5,.cls-6,.cls-7,.cls-8{stroke:#000;}.cls-5{stroke-width:14px;}.cls-6{stroke-width:4px;}.cls-7{stroke-width:13.5702px;}.cls-8{stroke-width:3.8772px;}.cls-10{font-size:60px;font-family:FCHomeRegular, FC Home;}</style></defs><title>node_11</title><g id="Layer_6" data-name="Layer 6"><line class="cls-1" x1="175.33301" y1="70.2001" x2="955.83301" y2="71.1001"/><line class="cls-1" x1="189.733" y1="498.1001" x2="946.23303" y2="499.30011"/><line class="cls-2" x1="170.033" y1="110.50009" x2="493.43298" y2="260.2001"/><line class="cls-3" x1="584.23303" y1="302.90009" x2="955.83301" y2="464.50012"/><line class="cls-4" x1="124.63301" y1="135.2001" x2="124.93301" y2="445.90009"/><line class="cls-2" x1="1004.63306" y1="125.1001" x2="1004.63306" y2="436.30011"/></g><g id="Layer_5" data-name="Layer 5"><circle class="cls-5" cx="999.63306" cy="495.1001" r="53.5"/><path class="cls-6" d="M1063.30005,584.8c0,10.5,4.5,15.9,12.9,15.9a16.87264,16.87264,0,0,0,9.4-3.2,4.816,4.816,0,0,1,6.1,1.4c1.3,1.8.4,3.5-1.30005,4.6a25.50346,25.50346,0,0,1-14.19995,4.3c-14.5,0-21.80005-9.1-21.80005-23,0-13.1,6.6-23,21.80005-23A24.01483,24.01483,0,0,1,1090.4,566.1c1.9,1.4,2.2,2.9.9,5.1-.9,1.8-4.4,1.5-6,.6a15.73386,15.73386,0,0,0-9.1-3C1067.80005,568.8,1063.30005,574.3,1063.30005,584.8Z" transform="translate(-75.16699 -88.8999)"/><circle class="cls-5" cx="1004.63306" cy="77.30009" r="53.5"/><path class="cls-6" d="M1065.7,147.5a3.585,3.585,0,0,1,3.6-3.6h12.1c14.6-.1,22.30005,7.3,22.30005,22.4,0,14.8-7.4,22.4-22.19995,22.4h-12.19995a3.585,3.585,0,0,1-3.6-3.6M1095,166.3c0-10.5-4-15.5-13.5-15.5h-7.19995v31h7.1C1090.6,181.8,1095,176.8,1095,166.3Z" transform="translate(-75.16699 -88.8999)"/><g id="Layer_3" data-name="Layer 3"><ellipse class="cls-5" cx="123.033" cy="80.9001" rx="51.5" ry="50.2"/><path class="cls-6" d="M190.4,177a22.02426,22.02426,0,0,1-.9,2.1,15.38315,15.38315,0,0,0-.8,1.9c-.3.6-.5,1.2-.8,1.9s-.6,1.3-.9,2.2c-.2.6-.8.9-1.5,1.3a5.40438,5.40438,0,0,1-2.9.2,4.95173,4.95173,0,0,1-1.3-.4,5.38787,5.38787,0,0,1-1.3-.7,2.16588,2.16588,0,0,1-.8-.9,1.51468,1.51468,0,0,1,.1-1.3c.1-.2.2-.7.5-1.3a22.88119,22.88119,0,0,1,1-2.3c.3-.8.7-1.7.9-2.4a8.88144,8.88144,0,0,1,.6-1.5c1.1-2.7,2-5.2,2.9-7.4s1.7-4.4,2.6-6.6c1-2.2,1.9-4.4,3-6.7s2.4-4.9,3.9-7.7c.2-.5.7-.8,1.3-1.2a3.80307,3.80307,0,0,1,2.2-.6,4.282,4.282,0,0,1,2.2.6c.7.4,1.2.8,1.3,1.2,1.5,2.8,2.8,5.3,3.9,7.7,1.1,2.3,2.1,4.5,3,6.7,1,2.2,1.8,4.3,2.6,6.6.9,2.3,1.8,4.7,2.9,7.4.1.2.2.8.5,1.5a24.42583,24.42583,0,0,0,1,2.4c.3.8.7,1.6.9,2.3.3.8.4,1.2.6,1.3a1.51475,1.51475,0,0,1,.1,1.3c-.2.4-.4.8-.8.9a5.3875,5.3875,0,0,1-1.3.7,9.28722,9.28722,0,0,1-1.3.4,4.57978,4.57978,0,0,1-2.9-.2,2.48293,2.48293,0,0,1-1.5-1.3c-.6-1.6-1.2-2.9-1.6-4a38.875,38.875,0,0,1-1.6-3.9H190.4V177Zm7.8-21.2c-.6,1.4-1.2,2.6-1.6,3.8s-1,2.4-1.4,3.7a23.15163,23.15163,0,0,0-1.3,3.7c-.4,1.2-.9,2.5-1.3,3.9h11.7c-1-2.7-1.8-5.3-2.7-7.5C200.5,161.1,199.4,158.6,198.2,155.8Z" transform="translate(-75.16699 -88.8999)"/></g><g id="Layer_4" data-name="Layer 4"><ellipse class="cls-5" cx="131.33301" cy="499.1001" rx="52.39999" ry="53.90002"/><path class="cls-6" d="M226,597.6c0,8.3-4.7,12.8-14.2,12.8H195c-2.7,0-3.7-3.2-3.7-6v-36a3.90045,3.90045,0,0,1,3.7-3.7h15.2c8.1,0,13.2,5,13.2,12.6a10.67356,10.67356,0,0,1-5.7,9.5C222.3,588.3,226,592.7,226,597.6Zm-17-25.8h-9V584h9c3.7,0,5.8-2.5,5.8-6.1C214.7,574.3,212.7,571.8,209,571.8Zm8.4,25.1c0-3.7-3.2-6.4-7.5-6.4h-10v12.9h11A6.13382,6.13382,0,0,0,217.4,596.9Z" transform="translate(-75.16699 -88.8999)"/></g><ellipse class="cls-7" cx="541.73303" cy="274.6001" rx="50.09998" ry="53.60001"/><path class="cls-8" d="M610,344.7v11.9h14.7a3.20416,3.20416,0,0,1,3.5,3.4,3.3429,3.3429,0,0,1-3.1,3.5H610v12.6h18.4a3.26858,3.26858,0,0,1,3.6,3.5,3.42408,3.42408,0,0,1-3.2,3.5H605.3c-2.5,0-3.5-1.5-3.5-4.1V341.8c0-2.4.7-4.1,3.5-4.1h23c1.9,0,3.7,1,3.7,3.5a3.45772,3.45772,0,0,1-3.4,3.5h-.1Z" transform="translate(-75.16699 -88.8999)"/></g><g id="Layer_7" data-name="Layer 7"><rect class="cls-9" x="285.733" y="22.2001" width="111.19998" height="44.7"/><text class="cls-10" transform="translate(532.58569 44.54993)">9.69</text><rect class="cls-9" x="748.73303" y="29.80009" width="101.59998" height="46"/><text class="cls-10" transform="translate(680.71429 321.20511)">16.66</text><rect class="cls-9" x="300.133" y="237.80011" width="124" height="56.70001"/><rect class="cls-9" x="750.33301" y="238.90009" width="126.20001" height="69.5"/><rect class="cls-9" x="283.53302" y="475.50012" width="173.20001" height="110.09998"/><text class="cls-10" transform="translate(517.53979 559.45917)">9.66</text><rect class="cls-9" x="761.633" y="472.80011" width="117.59998" height="69.5"/><rect class="cls-9" x="132.43301" y="178.7001" width="154" height="82.30002"/><rect class="cls-9" x="129.83301" y="396.7001" width="104.79999" height="69.49997"/><rect class="cls-9" x="291.03302" y="136.30009" width="125.10001" height="96.2"/><rect class="cls-9" x="306.53302" y="362.90009" width="102.70001" height="86.59998"/><rect class="cls-9" x="557.633" y="169.40009" width="61.29999" height="38.5"/><rect class="cls-9" x="545.33301" y="386.7001" width="49.90002" height="74.89999"/><rect class="cls-9" x="743.43298" y="127.9001" width="77" height="77.7"/><rect class="cls-9" x="759.03302" y="350.00009" width="139.70001" height="73.39999"/><rect class="cls-9" x="963.63306" y="173.1001" width="114.80005" height="104.10001"/><text class="cls-10" transform="translate(1028.58032 286.2052)">9.99</text><rect class="cls-9" x="961.43298" y="392.7001" width="52" height="61.30002"/><text class="cls-10" transform="translate(0.00021 302.93979)">6.66</text><text class="cls-10" transform="translate(265.83301 260.19989)">16.69</text></g><rect class="cls-9" x="355.633" y="620.80011" width="775.59991" height="99.79999"/></svg>