<svg id="Layer_1" data-name="Layer 1" xmlns="http://www.w3.org/2000/svg" viewBox="0 0 1112.48279 737.44141"><defs><style>.cls-1{fill:#fff;stroke-width:14.2373px;}.cls-1,.cls-2{stroke:#000;}.cls-1,.cls-2,.cls-3,.cls-4,.cls-5{stroke-miterlimit:10;}.cls-2{stroke-width:4.0678px;}.cls-3,.cls-4,.cls-5,.cls-6{fill:none;}.cls-3{stroke:#262222;}.cls-3,.cls-4,.cls-5{stroke-width:10.1695px;opacity:0.7;}.cls-3,.cls-4,.cls-5,.cls-7{isolation:isolate;}.cls-4{stroke:#393434;}.cls-5{stroke:#131111;}.cls-7{font-size:60.4635px;font-family:FCHomeRegular, FC Home;}</style></defs><title>node_8</title><g id="Layer_5" data-name="Layer 5"><ellipse class="cls-1" cx="956.68286" cy="82.64141" rx="54.90002" ry="53.90001"/><path class="cls-2" d="M1086.4,146.4c0,10.6,4.6,16,13.2,16a17.24431,17.24431,0,0,0,9.6-3.2,5.08458,5.08458,0,0,1,6.30005,1.4c1.30005,1.8.4,3.5-1.30005,4.6a26.56752,26.56752,0,0,1-14.6,4.3c-14.9,0-22.4-9.2-22.4-23.2,0-13.2,6.80005-23.2,22.4-23.2a25.24081,25.24081,0,0,1,14.6,4.3c1.9,1.4,2.30005,2.9.9,5.1-.9,1.8-4.5,1.5-6.2.6a16.5923,16.5923,0,0,0-9.3-3C1091,130.2,1086.4,135.8,1086.4,146.4Z" transform="translate(-138.61719 -64.55859)"/><ellipse class="cls-1" cx="532.48279" cy="536.84143" rx="54.90002" ry="53.90002"/><path class="cls-2" d="M693.7,601.3c0,14.9-7.6,22.6-22.8,22.6H658.4a3.60825,3.60825,0,0,1-3.7-3.6V582.4a3.60821,3.60821,0,0,1,3.7-3.6h12.4C685.8,578.6,693.7,586,693.7,601.3Zm-9,0c0-10.6-4.1-15.6-13.9-15.6h-7.4v31.2h7.3C680.2,616.9,684.7,611.8,684.7,601.3Z" transform="translate(-138.61719 -64.55859)"/><ellipse class="cls-1" cx="526.98279" cy="320.8414" rx="54.90002" ry="53.89999"/><path class="cls-2" d="M658.1,366.5v12h16.1c1.7,0,3.8.8,3.8,3.4a3.45543,3.45543,0,0,1-3.4,3.5h-16.5v12.7h20.1c1.9,0,3.9.9,3.9,3.5a3.54215,3.54215,0,0,1-3.5,3.5h-25.7c-2.8,0-3.8-1.5-3.8-4.1V363.6c0-2.4.8-4.1,3.8-4.1H678c2.1,0,4.1,1,4.1,3.5a3.58962,3.58962,0,0,1-3.7,3.5H658.1Z" transform="translate(-138.61719 -64.55859)"/><ellipse class="cls-1" cx="526.98279" cy="88.3414" rx="54.90002" ry="53.9"/><path class="cls-2" d="M677.1,133.2a3.45544,3.45544,0,0,1-3.4,3.5h-20.5v12h16.1c2.5,0,3.8,1.5,3.8,3.4,0,2-1.4,3.5-3.8,3.5h-16.1v16.5c0,1.8-2.1,3.5-4.5,3.5-2.5,0-4.5-1.7-4.5-3.5V133.3a3.76016,3.76016,0,0,1,3.8-3.6h25.3a3.46938,3.46938,0,0,1,3.7,3.2C677.1,132.9,677.1,133,677.1,133.2Z" transform="translate(-138.61719 -64.55859)"/><ellipse class="cls-1" cx="87.38281" cy="541.74139" rx="54.89999" ry="53.90002"/><path class="cls-2" d="M247,606.4c.5,13.1-5.2,21.7-20.8,21.9-14.2,0-22.1-9.7-22.1-23.2,0-13.8,7.7-23.2,23.3-23.2,5.7,0,19.7,3.6,16.3,9.1a4.163,4.163,0,0,1-4.3,1.6c-4.5-1.5-8.1-3.4-12-3.4-9.3,0-14.2,5.3-14.2,15.8,0,8.8,4.1,15.8,13.2,15.8,8.7,0,12.2-4,12.5-12.2h-8.2c-2.6,0-3.5-1.7-3.5-3.7,0-1.9.9-3.7,3.5-3.7h11.7C245.7,601.3,246.9,604.1,247,606.4Z" transform="translate(-138.61719 -64.55859)"/><ellipse class="cls-1" cx="87.38281" cy="329.44141" rx="54.89999" ry="53.89999"/><path class="cls-2" d="M204.2,414.3V375.1c0-1.8,2.1-3.5,4.5-3.5s4.5,1.7,4.5,3.5v16.5h21.3V375.1c0-1.8,1.8-3.5,4.6-3.5,2.4,0,4.5,1.7,4.5,3.5v39.2c0,1.8-2.2,3.5-4.5,3.5-2.7,0-4.6-1.6-4.6-3.5V398.5H213.2v15.8c0,1.8-2.1,3.5-4.5,3.5S204.2,416.1,204.2,414.3Z" transform="translate(-138.61719 -64.55859)"/><ellipse class="cls-1" cx="89.68282" cy="93.3414" rx="54.90001" ry="53.9"/><path class="cls-2" d="M223.8,177.4V138.2c0-1.8,1.7-3.5,4.5-3.5,2.5,0,4.6,1.7,4.6,3.5v39.2c0,1.8-2.2,3.5-4.6,3.5C225.6,180.9,223.8,179.3,223.8,177.4Z" transform="translate(-138.61719 -64.55859)"/><g id="Layer_4" data-name="Layer 4"><ellipse class="cls-1" cx="962.48279" cy="315.04141" rx="53.80005" ry="54.29999"/><path class="cls-2" d="M1116.7,390.1c0,8.4-4.80005,12.9-14.6,12.9h-17.2c-2.8,0-3.8-3.2-3.8-6V360.7a3.91786,3.91786,0,0,1,3.8-3.7h15.6c8.30005,0,13.5,5,13.5,12.7a10.92,10.92,0,0,1-5.80005,9.6C1112.9,380.8,1116.7,385.2,1116.7,390.1Zm-17.3999-26h-9.19995v12.3h9.19995c3.80005,0,6-2.5,6-6.1C1105.1,366.7,1103.1,364.1,1099.30005,364.1Zm8.6,25.3c0-3.7-3.3-6.4-7.69995-6.4H1089.9v13h11.30005C1104.80005,396,1107.9,393.8,1107.9,389.4Z" transform="translate(-138.61719 -64.55859)"/></g><g id="Layer_3" data-name="Layer 3"><ellipse class="cls-1" cx="956.68286" cy="521.04138" rx="52.90002" ry="50.59998"/><path class="cls-2" d="M1089.6,591.5a22.01817,22.01817,0,0,1-.9,2.1,15.39074,15.39074,0,0,0-.80005,1.9c-.3.6-.5,1.2-.8,1.9s-.6,1.3-.9,2.2c-.19995.6-.80005.9-1.5,1.3a5.68858,5.68858,0,0,1-3,.2,4.95029,4.95029,0,0,1-1.30005-.4,5.38931,5.38931,0,0,1-1.30005-.7,2.16619,2.16619,0,0,1-.8-.9,1.515,1.515,0,0,1,.1-1.3c.1-.2.19995-.7.5-1.3a22.881,22.881,0,0,1,1-2.3c.30005-.8.69995-1.7.9-2.4a8.89118,8.89118,0,0,1,.6-1.5q1.65-4.05,3-7.5c.9-2.2,1.69995-4.4,2.69995-6.7,1-2.2,1.9-4.4,3.1-6.8,1.1-2.3,2.5-4.9,4-7.8.2-.5.7-.8,1.30005-1.2a3.9206,3.9206,0,0,1,2.30005-.6,4.9342,4.9342,0,0,1,2.3.6c.7.4,1.2.8,1.30005,1.2,1.5,2.8,2.9,5.3,4,7.8,1.1,2.3,2.19995,4.5,3.1,6.8,1,2.2,1.8,4.3,2.7,6.7.9,2.3,1.8,4.7,3,7.5.1.2.19995.8.5,1.5a24.43671,24.43671,0,0,0,1,2.4c.3.8.69995,1.6.9,2.3.30005.8.4,1.2.6,1.3a1.51456,1.51456,0,0,1,.1,1.3c-.2.4-.4.8-.80005.9a5.38913,5.38913,0,0,1-1.30005.7,9.29186,9.29186,0,0,1-1.3.4,4.89933,4.89933,0,0,1-3-.2,2.48256,2.48256,0,0,1-1.5-1.3c-.6-1.6-1.2-2.9-1.6-4a38.87351,38.87351,0,0,1-1.6-3.9H1090v-.2Zm8-21.3c-.6,1.4-1.2,2.6-1.6,3.8s-1,2.4-1.4,3.7a23.15683,23.15683,0,0,0-1.30005,3.7c-.4,1.2-.9,2.5-1.3,3.9h12c-1-2.7-1.80005-5.3-2.80005-7.6C1100,575.5,1098.9,573,1097.6,570.2Z" transform="translate(-138.61719 -64.55859)"/></g></g><g id="Layer_6" data-name="Layer 6"><line class="cls-3" x1="902.98279" y1="531.84143" x2="590.58282" y2="530.94141"/><line class="cls-3" x1="903.98279" y1="319.44141" x2="577.6828" y2="318.44141"/><line class="cls-3" x1="897.98279" y1="77.24141" x2="585.6828" y2="76.24141"/><line class="cls-3" x1="472.08282" y1="531.84143" x2="144.58282" y2="535.54138"/><line class="cls-3" x1="468.28284" y1="318.3414" x2="144.58282" y2="322.14142"/><line class="cls-3" x1="468.88281" y1="77.74141" x2="148.88281" y2="81.54141"/><line class="cls-4" x1="914.88281" y1="494.14142" x2="581.88281" y2="347.04141"/><line class="cls-3" x1="914.28284" y1="283.04141" x2="579.1828" y2="118.04141"/><line class="cls-3" x1="477.58282" y1="115.04141" x2="138.58282" y2="297.3414"/><line class="cls-5" x1="475.78284" y1="349.94141" x2="135.28281" y2="513.54138"/><line class="cls-4" x1="962.48279" y1="475.14142" x2="962.18286" y2="374.74139"/><line class="cls-4" x1="530.98279" y1="479.74139" x2="530.98279" y2="379.8414"/><line class="cls-3" x1="962.58276" y1="255.3414" x2="962.28284" y2="142.24141"/><line class="cls-3" x1="526.98279" y1="261.74139" x2="526.98279" y2="147.1414"/><line class="cls-3" x1="85.18282" y1="483.84143" x2="85.18282" y2="386.64142"/><line class="cls-4" x1="87.38281" y1="271.8414" x2="87.38281" y2="152.44141"/></g><rect class="cls-6" x="291.28281" y="20.5414" width="139.00003" height="76.1"/><text class="cls-7" transform="translate(291.26367 52.1748) scale(1.0184 1)">2</text><text class="cls-7" transform="translate(222.59863 420.60254) scale(1.0184 1)">19</text><text class="cls-7" transform="translate(766.11914 192.87939) scale(1.0184 1)">9</text><text class="cls-7" transform="translate(0 446.37695) scale(1.0184 1)">5</text><text class="cls-7" transform="translate(239.74805 198.80176) scale(1.0184 1)">8</text><text class="cls-7" transform="translate(257.71484 584.95996) scale(1.0184 1)">21</text><text class="cls-7" transform="translate(727.29883 44.89355) scale(1.0184 1)">12</text><text class="cls-7" transform="translate(717.8623 590.70703) scale(1.0184 1)">11</text><text class="cls-7" transform="translate(755.69629 401.20996) scale(1.0184 1)">15</text><text class="cls-7" transform="translate(7.31543 212.15381) scale(1.0184 1)">7</text><text class="cls-7" transform="translate(992.13379 212.99414) scale(1.0184 1)">20</text><text class="cls-7" transform="translate(997.98633 429.87305) scale(1.0184 1)">20</text><text class="cls-7" transform="translate(546.12402 224.48779) scale(1.0184 1)">16</text><text class="cls-7" transform="translate(555.05273 441.43945) scale(1.0184 1)">14</text><text class="cls-7" transform="translate(277.79004 283.04736) scale(1.0184 1)">4</text><text class="cls-7" transform="translate(717.8623 294.93896) scale(1.0184 1)">3</text><rect class="cls-6" x="291.28281" y="658.34143" width="821.19998" height="79.09998"/></svg>