<svg id="Layer_1" data-name="Layer 1" xmlns="http://www.w3.org/2000/svg" viewBox="0 0 1238.85143 749.79987"><defs><style>.cls-1,.cls-3{fill:#fff;}.cls-1,.cls-2,.cls-3{stroke:#000;}.cls-1,.cls-2,.cls-3,.cls-4,.cls-5,.cls-6,.cls-7,.cls-8,.cls-9{stroke-miterlimit:10;}.cls-1{stroke-width:13.3029px;}.cls-2{stroke-width:3.8008px;}.cls-3{stroke-width:12.4356px;}.cls-4{stroke:#020000;stroke-width:3.553px;}.cls-10,.cls-5,.cls-6,.cls-7,.cls-8,.cls-9{fill:none;}.cls-5,.cls-9{stroke:#262222;}.cls-5,.cls-7,.cls-8{stroke-width:9.502px;}.cls-5,.cls-6,.cls-7,.cls-8,.cls-9{opacity:0.7;}.cls-11,.cls-5,.cls-6,.cls-7,.cls-8,.cls-9{isolation:isolate;}.cls-6,.cls-8{stroke:#393434;}.cls-6{stroke-width:9.9162px;}.cls-7{stroke:#131111;}.cls-9{stroke-width:9.5px;}.cls-11{font-size:58.8941px;font-family:FCHomeRegular, FC Home;}</style></defs><title>node_2</title><g id="โหนด"><ellipse class="cls-1" cx="60.15145" cy="511.19989" rx="49.2" ry="52.5"/><path class="cls-2" d="M96.3,585.6c0,10.3,4.1,15.6,11.9,15.6a15.04155,15.04155,0,0,0,8.6-3.1,4.20649,4.20649,0,0,1,5.6,1.4c1.2,1.8.4,3.4-1.2,4.5a22.93463,22.93463,0,0,1-13.1,4.2c-13.3,0-20.1-8.9-20.1-22.6,0-12.9,6.1-22.6,20.1-22.6a21.55033,21.55033,0,0,1,13.1,4.2c1.7,1.4,2,2.8.8,5-.8,1.8-4,1.5-5.5.6a13.589,13.589,0,0,0-8.4-2.9C100.5,569.9,96.3,575.3,96.3,585.6Z" transform="translate(-46.74855 -73.6001)"/><ellipse class="cls-1" cx="423.85145" cy="65.3999" rx="49.19999" ry="52.5"/><path class="cls-2" d="M492.5,139.1c0,14.5-6.8,22-20.4,22H460.9a3.44065,3.44065,0,0,1-3.3-3.5V120.7a3.37673,3.37673,0,0,1,3.3-3.5H472C485.5,117,492.5,124.3,492.5,139.1Zm-8,0c0-10.3-3.7-15.2-12.4-15.2h-6.6v30.4H472C480.5,154.3,484.5,149.4,484.5,139.1Z" transform="translate(-46.74855 -73.6001)"/><ellipse class="cls-1" cx="428.75145" cy="275.7999" rx="49.20001" ry="52.5"/><path class="cls-2" d="M468.8,336.9v11.7h14.4a3.10368,3.10368,0,0,1,3.4,3.3,3.23909,3.23909,0,0,1-3,3.4H468.8v12.4h18a3.21244,3.21244,0,0,1,3.5,3.4,3.3192,3.3192,0,0,1-3.1,3.4H464.1c-2.5,0-3.4-1.5-3.4-4V334.1c0-2.4.7-4,3.4-4h22.5c1.8,0,3.7,1,3.7,3.4a3.35144,3.35144,0,0,1-3.3,3.4h-.1Z" transform="translate(-46.74855 -73.6001)"/><ellipse class="cls-1" cx="428.75145" cy="502.19989" rx="49.20001" ry="52.5"/><path class="cls-2" d="M494.7,557a3.23911,3.23911,0,0,1-3,3.4H473.3v11.7h14.4a3.35038,3.35038,0,1,1,0,6.7H473.3v16.1c0,1.8-1.8,3.4-4,3.4s-4-1.7-4-3.4V557.1a3.52413,3.52413,0,0,1,3.4-3.5h22.7a3.21909,3.21909,0,0,1,3.3,3.1Z" transform="translate(-46.74855 -73.6001)"/><ellipse class="cls-1" cx="801.15148" cy="64.2999" rx="49.20001" ry="52.5"/><path class="cls-2" d="M867.5,140.3c.5,12.8-4.7,21.1-18.7,21.3-12.7,0-19.8-9.4-19.8-22.6,0-13.4,6.9-22.6,20.9-22.6,5.2,0,17.7,3.5,14.6,8.8a3.56659,3.56659,0,0,1-3.9,1.6c-4-1.5-7.3-3.3-10.8-3.3-8.4,0-12.7,5.2-12.7,15.4,0,8.5,3.7,15.4,11.9,15.4,7.8,0,10.9-3.9,11.2-11.9h-7.4c-2.3,0-3.1-1.7-3.1-3.6s.8-3.6,3.1-3.6h10.5C866.3,135.3,867.4,138.1,867.5,140.3Z" transform="translate(-46.74855 -73.6001)"/><ellipse class="cls-1" cx="801.15148" cy="271.09991" rx="49.20001" ry="52.5"/><path class="cls-2" d="M867.5,324.9v38.2c0,1.8-1.8,3.4-4,3.4s-4-1.7-4-3.4V347H840.2v16.1c0,1.8-1.7,3.4-4.1,3.4-2.1,0-4-1.7-4-3.4V324.9c0-1.8,1.9-3.4,4-3.4,2.4,0,4.1,1.6,4.1,3.4v15.4h19.1V324.9c0-1.8,1.8-3.4,4-3.4S867.5,323.1,867.5,324.9Z" transform="translate(-46.74855 -73.6001)"/><ellipse class="cls-1" cx="799.05144" cy="501.09991" rx="49.20001" ry="52.5"/><path class="cls-2" d="M849.9,555.6v38.2c0,1.8-1.6,3.4-4,3.4-2.2,0-4.1-1.7-4.1-3.4V555.6c0-1.8,1.9-3.4,4.1-3.4A3.73137,3.73137,0,0,1,849.9,555.6Z" transform="translate(-46.74855 -73.6001)"/><ellipse class="cls-3" cx="1131.35143" cy="279.09991" rx="48.5" ry="46.5"/><path class="cls-4" d="M1185.30005,333v27.9c0,8.8-3.30005,14.6-11.69995,14.6-3.5,0-10.4-1.2-9.2-5.2.4-1.4,1.80005-2.1,3.6-1.9.30005.1.7.2,1.1.3,4.6.7,8.19995,1.1,8.19995-7V333c0-1.6,1.9-3,4-3C1184.2,330,1185.30005,331.7,1185.30005,333Z" transform="translate(-46.74855 -73.6001)"/><g id="Layer_3" data-name="Layer 3"><ellipse class="cls-1" cx="60.15145" cy="84.0999" rx="47.4" ry="49.3"/><path class="cls-2" d="M99.7,164.8c-.3.8-.6,1.5-.8,2.1a7.31283,7.31283,0,0,0-.7,1.9,10.6619,10.6619,0,0,0-.7,1.9,11.2561,11.2561,0,0,0-.8,2.2c-.2.6-.7.9-1.4,1.3a4.68043,4.68043,0,0,1-2.7.2,4.23422,4.23422,0,0,1-1.2-.4,4.72752,4.72752,0,0,1-1.2-.7,1.84874,1.84874,0,0,1-.7-.9,1.51469,1.51469,0,0,1,.1-1.3c.1-.2.2-.7.5-1.3.3-.8.6-1.5.9-2.3s.6-1.7.8-2.4a8.88157,8.88157,0,0,1,.6-1.5c1-2.7,1.8-5.1,2.7-7.3.8-2.2,1.6-4.3,2.4-6.5.9-2.2,1.7-4.3,2.8-6.6s2.2-4.8,3.6-7.6a2.75886,2.75886,0,0,1,1.2-1.2,3.37879,3.37879,0,0,1,2-.6,3.60567,3.60567,0,0,1,2,.6c.6.4,1.1.8,1.2,1.2,1.4,2.7,2.6,5.2,3.6,7.6,1,2.3,1.9,4.4,2.8,6.6s1.7,4.2,2.4,6.5c.8,2.3,1.7,4.6,2.7,7.3.1.2.2.8.5,1.5l.9,2.4c.3.8.6,1.6.8,2.3.3.8.4,1.2.6,1.3a1.51469,1.51469,0,0,1,.1,1.3c-.2.4-.4.8-.7.9a4.72752,4.72752,0,0,1-1.2.7,8.39587,8.39587,0,0,1-1.2.4,4.03543,4.03543,0,0,1-2.7-.2,2.57174,2.57174,0,0,1-1.4-1.3c-.6-1.6-1.1-2.8-1.5-3.9-.5-1.1-1-2.4-1.5-3.8H99.7Zm7.2-20.8c-.6,1.4-1.1,2.6-1.5,3.7-.4,1.2-.9,2.4-1.3,3.6a25.32955,25.32955,0,0,0-1.2,3.6c-.4,1.2-.8,2.5-1.2,3.8h10.8c-.9-2.7-1.7-5.2-2.5-7.4C109,149.2,108,146.7,106.9,144Z" transform="translate(-46.74855 -73.6001)"/></g><g id="Layer_4" data-name="Layer 4"><ellipse class="cls-1" cx="54.85145" cy="284.7999" rx="48.2" ry="52.89999"/><path class="cls-2" d="M119.6,367.9c0,8.1-4.3,12.6-13.1,12.6H91.1c-2.5,0-3.4-3.1-3.4-5.9V339.3a3.69106,3.69106,0,0,1,3.4-3.6h14c7.5,0,12.1,4.9,12.1,12.4a10.50654,10.50654,0,0,1-5.2,9.3A11.18627,11.18627,0,0,1,119.6,367.9Zm-15.7-25.4H95.6v12h8.3c3.4,0,5.3-2.5,5.3-6S107.4,342.5,103.9,342.5Zm7.8,24.7c0-3.6-2.9-6.3-6.9-6.3H95.6v12.6h10.1C108.9,373.5,111.7,371.4,111.7,367.2Z" transform="translate(-46.74855 -73.6001)"/></g></g><g id="เส้นเล็ก"><line class="cls-5" x1="108.25145" y1="73.5999" x2="371.75145" y2="71.0999"/><line class="cls-5" x1="107.35146" y1="280.49991" x2="383.35146" y2="278.09991"/><line class="cls-5" x1="112.75145" y1="516.3999" x2="376.15145" y2="513.99988"/><line class="cls-5" x1="477.95146" y1="70.19991" x2="749.85143" y2="70.2999"/><line class="cls-5" x1="477.95146" y1="281.8999" x2="749.85143" y2="278.19989"/><line class="cls-5" x1="477.95146" y1="516.09991" x2="746.05144" y2="512.59991"/><line class="cls-6" x1="96.85146" y1="247.49991" x2="388.25145" y2="98.7999"/><line class="cls-5" x1="98.15145" y1="315.8999" x2="381.95146" y2="473.29993"/><line class="cls-5" x1="473.05144" y1="476.19989" x2="755.25145" y2="302.2999"/><line class="cls-7" x1="474.65148" y1="247.3999" x2="758.15148" y2="91.7999"/><line class="cls-8" x1="54.85145" y1="128.8999" x2="55.15145" y2="226.59991"/><line class="cls-8" x1="425.15145" y1="120.99991" x2="425.15145" y2="218.2999"/><line class="cls-5" x1="54.85145" y1="342.8999" x2="55.05146" y2="453.09991"/><line class="cls-5" x1="428.75145" y1="333.2999" x2="428.75145" y2="444.99988"/><line class="cls-5" x1="803.15148" y1="120.5999" x2="803.15148" y2="215.2999"/><line class="cls-8" x1="801.15148" y1="327.09991" x2="801.15148" y2="443.49988"/><line class="cls-9" x1="848.25145" y1="91.7999" x2="1122.15148" y2="229.59991"/><line class="cls-9" x1="850.35143" y1="484.8999" x2="1133.65148" y2="324.99991"/><line class="cls-5" x1="857.45146" y1="278.19989" x2="1077.65148" y2="282.19989"/></g><g id="เลข"><polygon class="cls-10" points="292.451 10.4 378.251 7.1 318.551 56.8 216.251 56.8 292.451 10.4"/><text class="cls-11" transform="translate(216.27098 43.72852) scale(0.9371 1)">9</text><rect class="cls-10" x="642.15148" y="20.3999" width="93.5" height="45.2"/><text class="cls-11" transform="translate(605.04247 56.81055) scale(0.9371 1)">11</text><rect class="cls-10" x="229.45146" y="224.59991" width="114.10001" height="55.70001"/><text class="cls-11" transform="translate(229.49315 255.40283) scale(0.9371 1)">7</text><rect class="cls-10" x="643.55144" y="225.59991" width="116.09998" height="68.20001"/><text class="cls-11" transform="translate(611.22606 261.95801) scale(0.9371 1)">17</text><polygon class="cls-10" points="214.251 457.9 357.051 454.5 357.051 562.6 214.251 565.9 214.251 457.9"/><text class="cls-11" transform="translate(214.22362 488.71826) scale(0.9371 1)">16</text><rect class="cls-10" x="653.95146" y="455.19989" width="108.20001" height="68.20001"/><text class="cls-11" transform="translate(626.07079 486.06006) scale(0.9371 1)">6</text><rect class="cls-10" x="75.25145" y="166.49991" width="141.70001" height="80.80002"/><text class="cls-11" transform="translate(77.72118 197.34033) scale(0.9371 1)">4</text><rect class="cls-10" x="72.85145" y="380.49991" width="96.4" height="68.19998"/><text class="cls-11" transform="translate(77.72118 411.36572) scale(0.9371 1)">1</text><rect class="cls-10" x="221.15145" y="124.8999" width="115.10001" height="94.39999"/><text class="cls-11" transform="translate(221.10985 155.73096) scale(0.9371 1)">15</text><rect class="cls-10" x="235.35146" y="347.3999" width="94.5" height="85"/><text class="cls-11" transform="translate(235.39501 378.10791) scale(0.9371 1)">14</text><polygon class="cls-10" points="449.851 154.1 522.751 157.4 522.751 195.2 449.851 191.8 449.851 154.1"/><text class="cls-11" transform="translate(449.79784 184.87988) scale(0.9371 1)">10</text><polygon class="cls-10" points="438.551 367.4 500.951 370.7 500.951 444.2 438.551 440.9 438.551 367.4"/><text class="cls-11" transform="translate(461.47167 398.13721) scale(0.9371 1)">2</text><rect class="cls-10" x="637.25145" y="116.69991" width="70.79999" height="76.3"/><text class="cls-11" transform="translate(611.22606 147.44873) scale(0.9371 1)">8</text><rect class="cls-10" x="651.65148" y="334.69989" width="128.5" height="72"/><text class="cls-11" transform="translate(605.04247 365.46338) scale(0.9371 1)">13</text><rect class="cls-10" x="751.95146" y="156.49991" width="105.59998" height="102.19998"/><text class="cls-11" transform="translate(827.44579 188.2417) scale(0.9371 1)">5</text><rect class="cls-10" x="749.85143" y="372.09991" width="47.79999" height="60.20001"/><text class="cls-11" transform="translate(820.70555 401.49951) scale(0.9371 1)">20</text><rect class="cls-10" x="951.15148" y="99.8999" width="98.40002" height="67"/><text class="cls-11" transform="translate(951.15673 130.66943) scale(0.9371 1)">19</text><rect class="cls-10" x="947.15148" y="223.3999" width="55.59998" height="72.70001"/><text class="cls-11" transform="translate(947.18407 254.19434) scale(0.9371 1)">12</text><rect class="cls-10" x="942.15148" y="371.3999" width="65.59998" height="67"/><text class="cls-11" transform="translate(942.19481 402.22412) scale(0.9371 1)">18</text></g><rect class="cls-10" x="364.15145" y="632.19989" width="874.69998" height="117.59998"/></svg>